<?xml version="1.0" encoding="UTF-8" standalone="no"?>
<svg
   sodipodi:docname="logo.svg"
   inkscape:version="1.1.1 (3bf5ae0d25, 2021-09-20)"
   inkscape:export-ydpi="90"
   inkscape:export-xdpi="90"
   inkscape:export-filename="D:\Mike\Web\jccd-school\brushed\Brushed\Template\_include\img\logo.png"
   id="svg871"
   version="1.1"
   viewBox="0 0 143.37734 135.0753"
   height="510.52081"
   width="541.89862"
   xmlns:inkscape="http://www.inkscape.org/namespaces/inkscape"
   xmlns:sodipodi="http://sodipodi.sourceforge.net/DTD/sodipodi-0.dtd"
   xmlns="http://www.w3.org/2000/svg"
   xmlns:svg="http://www.w3.org/2000/svg"
   xmlns:rdf="http://www.w3.org/1999/02/22-rdf-syntax-ns#"
   xmlns:cc="http://creativecommons.org/ns#"
   xmlns:dc="http://purl.org/dc/elements/1.1/">
  <defs
     id="defs865">
    <filter
       inkscape:collect="always"
       style="color-interpolation-filters:sRGB"
       id="filter951"
       x="-0.08897203"
       y="-0.093433031"
       width="1.1984218"
       height="1.1868535">
      <feGaussianBlur
         inkscape:collect="always"
         stdDeviation="6.0462261"
         id="feGaussianBlur953" />
    </filter>
  </defs>
  <sodipodi:namedview
     inkscape:window-maximized="1"
     inkscape:window-y="-4"
     inkscape:window-x="-4"
     inkscape:window-height="719"
     inkscape:window-width="1360"
     inkscape:pagecheckerboard="true"
     showgrid="false"
     inkscape:document-rotation="0"
     inkscape:current-layer="layer1"
     inkscape:document-units="px"
     inkscape:cy="255.26041"
     inkscape:cx="270.73073"
     inkscape:zoom="0.96959808"
     inkscape:pageshadow="2"
     inkscape:pageopacity="0"
     borderopacity="1.0"
     bordercolor="#666666"
     pagecolor="#000000"
     id="base"
     units="px" />
  <metadata
     id="metadata868">
    <rdf:RDF>
      <cc:Work
         rdf:about="">
        <dc:format>image/svg+xml</dc:format>
        <dc:type
           rdf:resource="http://purl.org/dc/dcmitype/StillImage" />
      </cc:Work>
    </rdf:RDF>
  </metadata>
  <g
     transform="translate(2.7243057,84.802756)"
     id="layer1"
     inkscape:groupmode="layer"
     inkscape:label="Capa 1">
    <path
       id="path1464"
       d="m 173.39658,221.55037 c -22.21945,-2.00205 -43.89814,-9.95016 -61.44089,-22.5262 -2.54154,-1.82197 -2.93115,-2.19646 -2.71169,-2.60654 0.2298,-0.42937 0.55884,-0.26228 3.18327,1.61636 17.85505,12.78126 39.30539,20.58509 61.76306,22.46995 4.77749,0.40098 15.79294,0.33163 20.78636,-0.13086 42.89258,-3.97274 80.10592,-29.44884 99.44725,-68.08122 1.23714,-2.4711 1.73263,-3.22648 2.03915,-3.10886 0.2227,0.0855 0.46365,0.15539 0.53551,0.15539 0.20132,0 -4.67868,9.38953 -6.11923,11.77394 -5.74897,9.51575 -11.34909,16.66311 -19.17791,24.47645 -9.75476,9.73551 -19.54637,16.80348 -31.89446,23.02275 -13.34756,6.72267 -26.55495,10.6865 -41.93646,12.58607 -4.15126,0.51266 -20.14139,0.74316 -24.47396,0.35277 z M 72.185253,205.99155 c -2.35594,-0.75404 -5.528183,-2.97524 -8.117943,-5.68418 -1.871641,-1.95778 -2.613451,-2.98309 -3.698962,-5.11273 -1.569347,-3.07882 -1.900196,-4.77824 -1.422252,-7.30549 1.70207,-9.00012 9.679628,-20.77891 18.551911,-27.39172 4.122507,-3.07265 8.601864,-4.80904 12.405823,-4.80904 2.847713,0 6.660729,1.91204 8.283403,4.15373 1.219827,1.68518 1.292934,3.32806 0.242163,5.44193 -1.503985,3.0256 -5.94935,7.54688 -10.890105,11.07605 -3.627236,2.59095 -6.614583,3.85839 -6.614583,2.80638 0,-0.18393 1.620094,-1.94011 3.600209,-3.9026 6.116892,-6.06251 8.550603,-9.26385 8.564814,-11.26626 0.02347,-3.30855 -5.464445,-1.48667 -10.405512,3.4544 -4.93603,4.93602 -10.018033,12.50852 -12.771107,19.0297 -2.044573,4.843 -2.416392,7.10434 -1.463082,8.89829 0.819557,1.54226 1.932791,2.11254 4.12384,2.11254 5.034315,0 9.887966,-2.64358 16.030697,-8.73126 8.185949,-8.11256 17.010373,-22.26878 27.367243,-43.90272 6.19585,-12.94219 16.24659,-36.11733 16.69103,-38.4864 0.4326,-2.30593 -0.0273,-2.39837 -6.01798,-1.20968 -13.27957,2.63501 -24.21927,6.42646 -26.806884,9.29064 l -0.997958,1.10462 0.164084,3.19813 c 0.09024,1.75898 0.412623,4.32921 0.716399,5.71166 0.845119,3.84605 0.907689,4.59453 0.418059,5.00089 -0.747422,0.62031 -1.808402,0.0741 -3.735727,-1.92311 -2.922916,-3.02895 -5.504471,-7.88851 -6.340319,-11.93511 -0.743403,-3.59906 -0.438536,-4.96586 1.537152,-6.89149 4.467503,-4.35431 16.072144,-7.65826 36.288584,-10.331728 2.91041,-0.384879 5.60943,-0.863518 5.99781,-1.063643 0.38838,-0.200123 1.45994,-1.248834 2.38125,-2.330463 2.06541,-2.424833 3.01123,-2.967953 4.39716,-2.525001 3.37169,1.077611 7.21358,4.038264 8.40787,6.479302 1.07934,2.206083 0.83752,3.486053 -1.86105,9.850703 -15.33066,36.1578 -31.4057,64.86366 -45.44554,81.15404 -5.278483,6.1246 -11.79711,11.78165 -16.223888,14.07956 -4.502071,2.33698 -9.765567,3.10941 -13.356609,1.96006 z m 159.516797,-0.41063 c -1.04507,-0.71433 -2.48535,-2.55281 -3.36499,-4.29533 -0.9633,-1.90825 -1.15993,-3.3823 -0.84346,-6.32317 0.53087,-4.93329 2.02248,-9.397 6.00046,-17.95662 2.05455,-4.42089 2.44689,-5.5691 1.58303,-4.63292 -0.19342,0.20962 -2.49853,3.06003 -5.12246,6.33425 -7.67907,9.58217 -10.38763,12.402 -13.25243,13.79681 -1.43012,0.69627 -2.96833,0.54081 -4.86565,-0.49186 -1.67253,-0.9103 -2.95858,-2.38019 -4.00167,-4.5737 -1.49584,-3.1456 -1.1779,-6.36713 1.16954,-11.85036 0.60501,-1.41319 1.16172,-2.72772 1.23714,-2.92117 0.0754,-0.19346 -1.45681,0.98182 -3.40496,2.61171 -11.18843,9.36066 -22.88871,16.87769 -27.51127,17.67506 -4.61677,0.7964 -10.44501,-2.39932 -12.68903,-6.95759 -0.70648,-1.43505 -0.80662,-1.91611 -0.80536,-3.86855 0.001,-2.13577 0.47888,-5.13775 1.06054,-6.66766 0.15086,-0.3968 0.21752,-0.72144 0.14813,-0.72144 -0.0694,0 -1.34636,0.9932 -2.83772,2.20709 -10.03566,8.16863 -20.58846,14.74757 -24.82865,15.47899 -4.61677,0.79639 -10.445,-2.39932 -12.68903,-6.9576 -0.70647,-1.43505 -0.80662,-1.91611 -0.80535,-3.86856 0.002,-3.75373 0.90911,-7.05399 3.19302,-11.62242 2.80676,-5.61425 6.93438,-11.39783 11.22928,-15.73434 6.17643,-6.23625 10.29123,-8.12935 13.95736,-6.42133 0.77604,0.36157 1.88723,1.02398 2.46931,1.47205 0.58208,0.44808 1.37784,1.06264 1.76835,1.3657 l 0.71001,0.55101 0.96613,-3.1181 c 1.06846,-3.44835 1.97399,-5.24571 2.77018,-5.4984 0.77684,-0.24657 3.47884,1.06578 4.63758,2.25243 0.90878,0.93068 0.98305,1.11598 0.84873,2.11746 -0.43483,3.24186 -7.56181,14.21665 -11.24466,17.31557 -1.11154,0.93529 -2.15439,1.29991 -2.33935,0.81793 -0.0794,-0.20691 0.5825,-2.48481 1.47087,-5.06202 0.88837,-2.57719 1.58266,-4.71366 1.54286,-4.74769 -0.0398,-0.034 -0.5939,-0.32499 -1.23134,-0.64655 -0.83011,-0.41876 -1.40714,-0.53812 -2.03356,-0.4206 -2.89899,0.54386 -9.61572,7.37276 -14.20837,14.44566 -3.41997,5.26692 -5.20031,9.3926 -5.41884,12.55734 -0.24585,3.56031 1.07774,4.94988 4.19224,4.40129 4.34906,-0.76608 15.80117,-6.94577 26.88252,-14.50612 4.0019,-2.73034 4.02853,-2.75518 5.4148,-5.05142 2.16013,-3.57805 5.86333,-8.33268 8.79726,-11.29503 6.17643,-6.23626 10.29123,-8.12936 13.95737,-6.42134 0.77603,0.36155 1.88722,1.02398 2.46931,1.47206 0.58208,0.44808 1.37783,1.06263 1.76834,1.36569 l 0.71001,0.55101 0.96614,-3.11812 c 1.06845,-3.44832 1.97399,-5.24569 2.77017,-5.49838 0.77685,-0.24656 3.47885,1.06577 4.63759,2.25244 0.90878,0.93067 0.98305,1.11597 0.84872,2.11746 -0.43482,3.24185 -7.5618,14.21664 -11.24466,17.31554 -1.11154,0.93531 -2.15439,1.29993 -2.33934,0.81794 -0.0794,-0.2069 0.57969,-2.47669 1.46464,-5.04396 0.88496,-2.56729 1.60901,-4.71282 1.60901,-4.76785 0,-0.055 -0.56555,-0.35088 -1.25677,-0.65742 -0.84476,-0.37463 -1.53311,-0.50591 -2.0997,-0.40044 -2.86353,0.533 -9.60721,7.4012 -14.17672,14.43849 -3.41997,5.26692 -5.20031,9.39259 -5.41885,12.55732 -0.24584,3.56031 1.07774,4.94987 4.19225,4.4013 5.2845,-0.93086 21.42947,-10.14847 32.86873,-18.76569 2.17129,-1.63562 2.96774,-2.45583 4.83444,-4.97863 5.4739,-7.39779 10.82353,-12.58397 15.32016,-14.85201 3.8863,-1.9602 7.79858,-0.96765 12.08686,3.06646 1.14701,1.07904 2.12373,1.91611 2.1705,1.86018 0.22794,-0.27258 5.41546,-8.82491 7.76501,-12.80169 3.9446,-6.67649 7.52944,-13.15421 10.32174,-18.6511 l 2.48541,-4.89279 -0.18209,-2.18603 c -0.12876,-1.54579 -0.0894,-2.29767 0.13424,-2.56719 1.12591,-1.35663 7.10572,-1.81804 9.22522,-0.71183 1.20618,0.62956 2.14561,2.14377 2.15688,3.47665 0.0122,1.42261 -3.05003,6.70208 -14.50181,25.00314 -11.22022,17.93102 -17.08657,28.05514 -22.15345,38.23228 -2.81097,5.64602 -4.05316,8.60074 -5.6689,13.48423 -1.8683,5.64685 -2.45037,8.70868 -2.34069,12.31265 0.0835,2.74394 0.0583,2.9146 -0.44059,2.98363 -0.29104,0.0402 -0.9617,-0.22246 -1.49036,-0.5838 z m -14.79659,-20.11739 c 4.13968,-2.61328 15.51668,-14.13582 21.41778,-21.69181 2.425,-3.10506 5.32022,-7.20865 5.32022,-7.54071 0,-0.30508 -1.4526,-1.51762 -2.41314,-2.01432 -0.41921,-0.21678 -1.38255,-0.51181 -2.14077,-0.6556 -1.24829,-0.23672 -1.51378,-0.19529 -2.80927,0.43853 -0.92355,0.45186 -2.33574,1.60209 -3.98389,3.24489 -7.20928,7.18588 -15.67418,20.09335 -17.07301,26.03327 -0.69723,2.96067 -0.32064,3.45001 1.68208,2.18575 z M 58.435124,118.52524 c -6.120778,-0.89291 -12.073442,-2.58778 -19.619608,-5.58619 -6.275046,-2.49334 -8.416407,-3.03072 -12.791848,-3.21011 -2.748722,-0.11269 -4.263304,-0.0205 -7.540625,0.45879 -2.255573,0.32989 -5.47026,0.61195 -7.14375,0.62679 l -3.042708,0.027 -0.241429,-1.52246 c -0.132786,-0.83734 -0.174868,-1.58901 -0.09352,-1.67037 0.301046,-0.30104 3.113107,-0.92574 7.875569,-1.74955 4.071006,-0.70418 5.562725,-0.84495 8.863541,-0.83638 5.994226,0.0156 8.127308,0.5403 18.025124,4.43405 12.713391,5.0014 24.01742,6.19072 32.114604,3.37888 10.020326,-3.47969 16.447045,-12.72924 19.593367,-28.199438 0.657984,-3.235246 0.936881,-4.123317 1.463053,-4.658683 l 0.650097,-0.661459 71.638929,-0.228473 71.63892,-0.228475 4.75357,2.371413 4.75358,2.37141 27.11979,1.232847 c 14.91588,0.678069 27.68533,1.295426 28.37658,1.371907 1.17285,0.129773 1.25683,0.09871 1.25799,-0.46537 0,-0.332434 0.38227,-1.556925 0.84807,-2.721092 0.74457,-1.861042 0.84691,-2.420223 0.84728,-4.630208 0,-2.102681 -0.10978,-2.773032 -0.67374,-4.101042 -0.63688,-1.499558 -0.66513,-1.761347 -0.51033,-4.725665 0.15719,-3.010879 0.19363,-3.16381 0.89877,-3.770315 1.01684,-0.874649 2.14029,-0.825441 3.1016,0.135856 0.76737,0.767352 0.76785,0.770104 0.60428,3.26037 -0.14552,2.215039 -0.0936,2.681597 0.4662,4.192937 0.54835,1.480352 0.62793,2.145975 0.61439,5.14015 -0.0143,3.18383 -0.0782,3.61169 -0.8577,5.754191 -0.48411,1.330536 -0.84214,2.826609 -0.84214,3.518868 0,1.544759 -0.60064,2.706934 -1.518,2.937177 -0.39304,0.09864 -4.55827,0.01109 -9.25602,-0.194607 l -8.54141,-0.373962 v 2.67044 c 2.3e-4,1.468742 -0.0759,4.089654 -0.16915,5.824249 l -0.1696,3.153824 1.31889,0.81984 c 1.436,0.89267 2.46455,2.54957 2.45404,3.9532 -0.007,1.00678 -0.81169,2.73583 -1.61652,3.47571 -3.7188,3.41874 -10.43776,0.14778 -9.21338,-4.48528 0.33907,-1.28304 1.58885,-2.74271 2.79017,-3.25873 l 0.81798,-0.35138 0.1742,-4.024769 c 0.0958,-2.213628 0.17421,-4.888129 0.17421,-5.943335 v -1.918557 l -2.18282,-0.156623 c -1.20054,-0.08614 -4.92125,-0.274992 -8.26823,-0.419671 -3.34698,-0.144677 -7.18674,-0.334122 -8.53281,-0.42099 l -2.44739,-0.157947 v 4.926033 c 0,4.900705 0.003,4.927225 0.61023,5.158034 0.99583,0.378621 2.34624,1.652575 2.73303,2.578315 0.46667,1.11687 0.461,2.8321 -0.0123,3.73816 -1.68102,3.21772 -6.31648,3.95513 -8.97693,1.42803 -1.49342,-1.41856 -1.91059,-3.31433 -1.13683,-5.16619 0.38679,-0.92574 1.7372,-2.199694 2.73304,-2.578315 0.60786,-0.230939 0.61065,-0.254799 0.61065,-5.215231 v -4.98324 l -7.34219,-0.315925 -7.34219,-0.315931 -4.84269,-2.380335 -4.8427,-2.380334 -50.7198,0.134487 c -27.89589,0.07397 -53.51777,0.192138 -56.93751,0.262599 -3.41974,0.07046 -11.96247,0.129011 -18.98385,0.130122 -12.049828,0.0019 -12.76615,0.02837 -12.76615,0.47167 0,0.793753 -1.553326,6.928306 -2.426885,9.584508 -2.832127,8.611545 -7.406108,15.426225 -13.066006,19.466775 -3.402724,2.42918 -8.741662,4.50064 -13.197025,5.12032 -2.658274,0.36972 -9.200703,0.3142 -12.055917,-0.10232 z m -1.690727,-15.4228 C 55.0412,93.775993 54.599156,88.762776 54.615555,78.959218 c 0.01495,-8.940327 0.329805,-13.003615 1.588889,-20.505209 7.836707,-46.691052 41.388747,-84.780736 85.971306,-97.598235 11.25499,-3.235812 20.43879,-4.50079 32.67604,-4.50079 10.72631,0 18.57246,0.911704 28.18016,3.274467 44.77528,11.011303 79.5957,47.291811 89.38862,93.136924 1.65089,7.728537 2.44793,14.426652 2.73108,22.951694 l 0.1692,5.093229 h -0.57097 c -0.54385,0 -0.57099,-0.116528 -0.57099,-2.451909 0,-3.643641 -0.47252,-10.365251 -1.05736,-15.040632 C 290.45371,41.991182 282.04718,21.431046 268.98326,4.2832206 262.449,-4.2937191 253.62198,-13.024152 245.09866,-19.340029 c -17.36665,-12.868891 -36.6764,-20.390379 -58.47291,-22.776227 -5.80181,-0.635064 -17.71805,-0.640805 -23.41563,-0.01127 -14.51308,1.603555 -26.60613,5.02829 -39.29062,11.127055 -25.472229,12.247166 -46.271278,33.8864211 -57.879891,60.218021 -5.195713,11.785338 -8.355502,23.785801 -9.892614,37.570834 -0.33572,3.010791 -0.458248,6.316712 -0.460891,12.435416 -0.0044,10.211097 0.22198,12.594635 2.406237,25.33385 0.126164,0.73581 0.07005,0.85989 -0.388858,0.85989 -0.465603,0 -0.592029,-0.30518 -0.959086,-2.3151 z M 30.529289,90.818874 c -0.06764,-0.192653 -0.30144,-1.957628 -0.519548,-3.922156 -1.400748,-12.61671 -1.164125,-26.04451 0.671135,-38.085364 6.148807,-40.3413561 28.717459,-75.845045 62.71348,-98.657191 10.260544,-6.885071 22.979514,-13.104004 34.890764,-17.059821 28.50275,-9.465977 59.9649,-9.686473 88.76771,-0.622112 18.16362,5.716165 34.72786,14.810283 49.86465,27.376749 4.03388,3.348905 14.02242,13.358175 17.46754,17.50373 15.96019,19.2053583 26.48153,41.207698 31.19083,65.2263 0.42793,2.182813 0.86002,4.593828 0.96019,5.357813 0.16452,1.255223 0.1333,1.389062 -0.32427,1.389062 -0.44143,0 -0.5819,-0.43248 -1.09593,-3.373437 -7.91988,-45.31576683 -36.6907,-83.822919 -77.82511,-104.161838 -36.63233,-18.112871 -79.08923,-19.792988 -117.0158,-4.630584 -4.97906,1.990546 -15.12439,6.977018 -19.37418,9.522492 -11.238328,6.731356 -19.185221,12.938584 -28.592124,22.332967 C 60.392134,-19.083875 52.308428,-7.858289 44.96079,6.9925513 41.72348,13.535713 39.815448,18.157401 37.53307,24.984218 c -5.734658,17.152921 -8.237088,35.918939 -7.144587,53.578125 0.204814,3.310599 0.888485,10.529112 1.151221,12.155117 0.06391,0.395499 -0.874105,0.489645 -1.010415,0.101414 z M 115.76078,75.039648 c -1.52036,-3.387812 -2.53773,-7.428386 -2.5693,-10.204151 -0.0114,-1.004379 -0.11675,-1.162423 -1.34347,-2.015863 -1.65806,-1.153525 -3.85599,-3.686188 -5.22736,-6.023443 -1.45936,-2.48724 -2.78819,-3.685974 -5.25013,-4.736134 l -1.528104,-0.651831 1.485024,0.126588 c 2.90021,0.247221 5.21418,1.965711 7.98321,5.928794 0.87786,1.256419 2.16837,2.688473 3.03738,3.370532 3.05209,2.395479 7.72814,4.092776 12.36522,4.488283 3.78157,0.322538 11.61517,-0.608031 13.77047,-1.635818 2.04657,-0.975942 1.06967,-1.645613 -3.5305,-2.420178 l -2.8299,-0.476491 2.24809,-0.187312 c 4.47914,-0.373205 8.388,-1.481463 9.85813,-2.795021 0.6575,-0.587481 0.77158,-0.849127 0.62493,-1.433399 -0.33051,-1.316879 -2.58237,-2.262976 -6.92421,-2.90913 l -2.3691,-0.352571 4.7625,-0.136567 c 5.23462,-0.150104 6.84616,-0.506532 7.8057,-1.726396 0.59819,-0.760473 0.67862,-2.002163 0.19315,-2.981989 -0.51768,-1.044832 -2.40565,-1.852083 -4.3316,-1.852083 -1.9292,0 -5.1547,-0.418582 -6.71532,-0.871467 -0.94719,-0.274865 -0.35301,-0.31942 4.28142,-0.321042 5.68208,-0.0021 6.91726,-0.195429 8.09322,-1.267452 0.77803,-0.709269 0.80039,-2.235042 0.0468,-3.193087 -1.21066,-1.5391 -4.18001,-2.822501 -8.05914,-3.48329 -4.73117,-0.805932 -7.40934,-1.970119 -10.06525,-4.375325 -2.61967,-2.372391 -5.15126,-3.246551 -9.37293,-3.236478 -3.12895,0.0075 -4.72843,0.359018 -8.96738,1.97096 -3.2928,1.252154 -6.32009,1.737876 -8.62935,1.384565 l -1.58556,-0.242589 2.31085,-0.461264 c 2.36545,-0.472162 3.88086,-0.985043 7.9406,-2.687444 1.27268,-0.53368 3.11815,-1.140743 4.10105,-1.349028 2.24372,-0.475473 6.24545,-0.47914 8.66625,-0.0079 1.01865,0.198273 1.88985,0.324797 1.93602,0.281167 0.0462,-0.04363 -0.22973,-0.69832 -0.6131,-1.454864 -0.38337,-0.756545 -0.65625,-1.416318 -0.60641,-1.466165 0.27212,-0.272113 3.87709,-0.646769 6.23996,-0.648504 4.3792,-0.0032 8.80919,1.179396 12.30627,3.285228 0.82888,0.499125 1.50705,0.830982 1.50705,0.737454 0,-0.09352 -0.56165,-0.74027 -1.24811,-1.437214 l -1.24812,-1.267166 0.5645,-0.564494 c 0.55606,-0.556061 0.57394,-0.55703 1.19674,-0.06484 0.34773,0.27481 6.2676,5.916999 13.15526,12.538197 6.88767,6.621198 12.65555,12.038542 12.81753,12.038542 0.16197,0 0.27953,-0.198943 0.26123,-0.442098 -0.0212,-0.281998 0.10427,-0.389321 0.34652,-0.296365 0.23721,0.09103 0.4348,-0.06469 0.52636,-0.414822 0.0806,-0.308305 0.25212,-0.495337 0.38109,-0.415626 0.12898,0.07971 0.23451,-0.01799 0.23451,-0.217096 0,-0.199114 -0.65485,-0.927377 -1.45522,-1.618361 -0.80036,-0.690985 -1.45521,-1.405794 -1.45521,-1.588463 0,-0.452866 1.39135,-1.754044 1.8756,-1.754044 0.2153,0 1.03272,0.649345 1.81651,1.442987 0.78378,0.793644 1.5258,1.380728 1.64892,1.304634 0.12312,-0.07609 0.14399,-0.267584 0.0464,-0.425535 -0.099,-0.16025 -0.0557,-0.211928 0.098,-0.116922 0.35044,0.216583 0.96611,-0.50396 0.74135,-0.867627 -0.10435,-0.168854 0.006,-0.20625 0.28774,-0.09795 0.36008,0.138171 0.41761,0.07372 0.27227,-0.305035 -0.15587,-0.406196 -0.12216,-0.428681 0.21865,-0.14583 0.79852,0.662707 0.38193,-0.176112 -0.52311,-1.053307 -0.50932,-0.493654 -0.92604,-1.00035 -0.92604,-1.12599 0,-0.462639 1.97861,-2.578187 2.4113,-2.578187 0.72335,0 5.79078,4.974569 5.79078,5.684668 0,0.657783 -1.849,2.517418 -2.50302,2.517418 -0.21166,0 -0.71733,-0.416719 -1.12372,-0.926034 -0.75375,-0.944663 -1.31041,-1.233662 -1.04525,-0.54265 0.10357,0.269894 0.02,0.334627 -0.28221,0.218649 -0.3175,-0.121835 -0.38642,-0.05292 -0.26458,0.264581 0.12312,0.320831 0.0511,0.388655 -0.2848,0.268364 -0.24725,-0.08854 -0.3674,-0.06978 -0.26701,0.04167 0.21999,0.244213 -0.36352,0.935072 -0.64555,0.764325 -0.10914,-0.06607 -0.19844,-0.0033 -0.19844,0.139507 0,0.269674 12.52177,12.543163 12.93996,12.683395 0.13042,0.04373 0.87393,-0.326665 1.65223,-0.823108 2.2166,-1.413857 2.17748,-1.41595 5.67058,0.303112 1.73407,0.853389 4.27535,2.000694 5.64729,2.549564 2.17878,0.87166 2.68043,0.978752 3.96413,0.846262 3.71177,-0.38309 8.9021,-4.256005 10.61809,-7.923001 0.71381,-1.525389 1.37567,-4.689636 0.98092,-4.689636 -0.0772,0 -0.65943,0.235511 -1.29379,0.523356 -1.18434,0.537409 -3.87566,0.687467 -5.25441,0.292968 -0.48537,-0.138879 -0.15608,-0.232971 1.23692,-0.353443 2.60432,-0.225235 3.84481,-0.950275 5.65451,-3.304964 l 0.6592,-0.85771 1.3869,0.526981 c 1.9476,0.740029 4.06177,0.690404 5.83926,-0.137065 1.65842,-0.772035 1.62738,-0.76658 1.62738,-0.285951 0,0.791425 2.70468,5.725094 3.77212,6.880813 0.61747,0.66853 1.77751,1.57603 2.57788,2.016662 l 1.4552,0.801153 -1.05833,-0.17581 c -1.31669,-0.218726 -1.82866,-0.472575 -3.21952,-1.596335 -0.60657,-0.490082 -1.26141,-0.829667 -1.45521,-0.754631 -0.66163,0.25618 -1.65117,2.037178 -2.10897,3.795773 -0.25147,0.965981 -0.72223,2.370429 -1.04615,3.120996 -0.52376,1.213638 -0.55032,1.457875 -0.24007,2.206903 0.19188,0.463232 0.80619,1.144876 1.36513,1.514763 0.55894,0.36989 1.01625,0.738328 1.01625,0.818753 0,0.08042 -0.24677,0.408895 -0.54837,0.729938 -0.49526,0.527174 -0.51748,0.686821 -0.22947,1.648132 0.28728,0.958824 0.43707,1.094169 1.50998,1.364332 1.62446,0.409043 2.95606,1.128175 3.86938,2.089663 0.72217,0.760265 0.80565,0.784416 1.48929,0.430893 0.79499,-0.411107 1.05294,-0.878846 1.05294,-1.909308 v -0.678193 l -1.91786,0.160785 c -2.06433,0.173066 -2.05756,0.116565 0.12215,-1.02021 1.97051,-1.027665 3.1605,-2.19425 3.06624,-3.005926 -0.0526,-0.453215 -0.21538,-0.656659 -0.47678,-0.595974 -0.21828,0.05067 -1.34938,0.143844 -2.51354,0.207039 l -2.11667,0.114906 1.65982,-0.63899 c 2.85185,-1.097888 4.65097,-2.520018 5.64343,-4.460904 0.47356,-0.926116 0.68358,-2.325645 0.349,-2.325645 -0.0841,0 -1.00687,0.407543 -2.05053,0.90565 -1.86792,0.891509 -5.06013,1.70851 -5.38932,1.379323 -0.0926,-0.09257 0.0327,-0.168306 0.27848,-0.168306 0.898,0 3.85966,-1.562701 5.06189,-2.670874 1.36567,-1.258832 1.98786,-2.268812 1.98786,-3.226853 0,-0.709149 -1.50908,-3.891857 -1.84533,-3.891857 -0.35676,0 -1.85884,1.83882 -1.85884,2.27556 0,0.222784 0.13762,0.662202 0.30581,0.976484 0.29813,0.557044 0.28981,0.560592 -0.33072,0.141002 -0.87287,-0.590211 -0.77683,-1.758889 0.28488,-3.466822 0.96625,-1.554366 0.94119,-1.678657 -0.77588,-3.848336 -1.3324,-1.683607 -2.91102,-2.735437 -5.2762,-3.515497 -0.96168,-0.317175 -3.2149,-1.2231 -5.00715,-2.01317 -3.29412,-1.452131 -7.51833,-2.701062 -9.27685,-2.742795 l -0.95827,-0.02275 0.79375,-0.255728 c 1.03714,-0.334142 3.94726,-0.08146 6.46485,0.56134 1.6589,0.423556 7.50317,2.33521 9.37075,3.065166 0.46127,0.18029 0.46641,0.146283 0.0885,-0.584557 -0.2207,-0.426791 -1.215,-1.662573 -2.20955,-2.746182 -1.65166,-1.799558 -1.70515,-1.891665 -0.61765,-1.063445 4.62381,3.52139 8.42113,7.895151 10.97795,12.644411 1.17048,2.174161 1.52902,1.749536 0.80851,-0.95754 -0.9397,-3.530587 -2.80836,-6.137246 -7.97503,-11.124655 -4.40869,-4.25573 -5.1083,-4.641892 -8.01218,-4.422415 -1.10932,0.08384 -4.87446,0.266962 -8.36696,0.406932 -5.3217,0.213278 -6.8213,0.366051 -9.26042,0.943422 -5.62125,1.330624 -7.91028,1.514586 -10.05416,0.808019 l -1.05833,-0.348798 1.71979,-0.03347 c 2.0273,-0.03945 5.53988,-0.776425 8.86354,-1.859661 3.91933,-1.277377 5.39441,-1.395008 18.25625,-1.455875 2.65767,-0.01257 3.03679,0.04923 4.36562,0.711692 1.72611,0.860515 5.52397,4.139417 7.58737,6.550578 1.9411,2.268254 4.64961,6.414045 5.27212,8.069794 0.66993,1.781897 0.65658,4.245843 -0.0286,5.271614 -0.45618,0.682977 -0.51081,1.190868 -0.46585,4.331213 0.0576,4.020852 -0.11069,4.666393 -1.66441,6.386174 -0.91253,1.010066 -0.99447,1.230717 -1.01789,2.7412 -0.0193,1.243118 -0.16782,1.842243 -0.6106,2.46298 -0.4428,0.620765 -0.54837,1.046644 -0.43406,1.751065 0.20372,1.255347 -0.50272,2.678113 -1.78107,3.587075 -0.94,0.668388 -1.00241,0.792853 -0.85883,1.712947 l 0.15483,0.992188 -15.44579,2.64e-4 c -8.49519,1.56e-4 -35.57206,0.0793 -60.17084,0.175882 l -44.72504,0.175556 -0.72948,-1.625494 z m 8.68789,-3.749672 c 0.87312,-0.141301 3.96874,-0.440597 6.87916,-0.665107 10.61451,-0.818793 18.69842,-2.692691 27.51667,-6.378533 4.13347,-1.727705 13.32484,-6.578594 13.0278,-6.875631 -0.0598,-0.05978 -0.80171,0.129743 -1.64873,0.421161 -0.84702,0.291417 -1.69999,0.529852 -1.89549,0.529852 -0.28121,0 -0.35546,-0.801355 -0.35546,-3.836459 0,-2.110052 0.045,-3.836458 0.1,-3.836458 0.055,0 0.53124,0.180192 1.05834,0.400426 0.52709,0.220233 0.95835,0.354544 0.95835,0.298463 0,-0.198485 -19.32572,-18.954941 -19.51709,-18.942185 -0.1069,0.0071 -1.18629,0.945139 -2.39865,2.08448 l -2.20428,2.071526 1.27824,0.434351 c 3.54683,1.20523 5.51461,3.847986 4.79792,6.443657 -0.26041,0.943118 -1.56762,2.506377 -2.29635,2.746134 -0.29093,0.09572 -0.25102,0.341593 0.19844,1.222608 0.33268,0.652105 0.5626,1.600793 0.5626,2.321351 0,2.087883 -0.89464,3.241394 -3.17556,4.094398 l -1.5393,0.575659 0.63764,0.939612 c 0.78555,1.157568 0.78862,1.354664 0.0386,2.480289 -0.4227,0.634423 -1.30669,1.255197 -3.0035,2.109192 l -2.40451,1.210173 0.48996,0.605078 c 0.26948,0.332793 0.48996,0.754425 0.48996,0.936961 0,0.621033 -1.10564,1.740064 -2.33812,2.366428 l -1.2291,0.624644 1.78361,0.879541 c 0.98099,0.483746 1.78361,0.947069 1.78361,1.0296 0,0.08254 -3.80275,0.773975 -8.45057,1.536528 -4.64781,0.762553 -9.14242,1.610082 -9.98802,1.883394 -1.74894,0.565293 -1.46498,0.662506 0.8438,0.288867 z m 98.09427,-3.758266 -4.0349,-1.31776 -0.002,-2.16018 c -0.001,-1.930612 -0.35826,-4.144552 -0.66831,-4.144552 -0.0637,0 -0.95789,0.650589 -1.98705,1.445754 -1.02915,0.795166 -2.75735,1.949948 -3.84045,2.566183 -1.0831,0.616236 -1.96927,1.191517 -1.96927,1.278398 0,0.210252 9.90816,2.886377 12.28467,3.318005 1.0288,0.186854 2.40632,0.337976 3.06117,0.335825 1.03542,-0.0034 0.66465,-0.175689 -2.84427,-1.321673 z M 186.4367,62.117909 c 0.76916,-0.09238 1.36447,-0.253558 1.32292,-0.35818 -0.15322,-0.385842 -11.9255,-11.640095 -12.17588,-11.640095 -0.14267,0 -0.19319,0.17253 -0.11227,0.3834 0.10356,0.269894 0.02,0.334626 -0.28221,0.218649 -0.3175,-0.121835 -0.38642,-0.05292 -0.26459,0.264583 0.10917,0.284486 0.0497,0.385186 -0.17625,0.298477 -0.18756,-0.07197 -0.50494,0.06665 -0.70528,0.308054 -0.32464,0.391163 0.20142,0.996934 4.83556,5.568291 2.92562,2.885985 5.4097,5.128374 5.67969,5.12708 0.26392,-0.0013 1.10917,-0.07788 1.87831,-0.170259 z m 46.41883,6.588704 c 0.75341,-0.85799 0.80843,-1.571336 0.15641,-2.028028 -0.66415,-0.465191 -0.21015,-0.576239 0.59474,-0.145476 0.66759,0.35728 0.65872,1.431245 -0.0174,2.107359 -0.66299,0.662987 -1.309,0.721222 -0.73376,0.06615 z m -0.97339,-4.391496 c 1.19032,-1.190318 1.18731,-1.790419 -0.0127,-2.526982 -0.47246,-0.290012 -0.44427,-0.306573 0.26311,-0.154559 1.13713,0.24438 1.4947,0.635103 1.40405,1.534237 -0.0817,0.810596 -0.88389,1.575403 -1.98525,1.892792 -0.48492,0.139745 -0.42944,0.01468 0.33073,-0.745488 z m -0.43693,-4.547399 c 0.96628,-1.100529 0.99209,-1.275077 0.292,-1.975167 -0.63839,-0.638381 -0.12587,-0.72018 0.73487,-0.11729 0.98182,0.687695 0.66277,2.020009 -0.65133,2.719906 -1.05856,0.56379 -1.20566,0.318011 -0.37554,-0.627449 z m -28.23838,-0.903705 c -3.27268,-1.890768 -5.29126,-3.359597 -8.11441,-5.9045 -7.56061,-6.815421 -12.95001,-15.082684 -15.12827,-23.206522 -0.87229,-3.253232 -0.98467,-7.769791 -0.25326,-10.178899 1.92356,-6.335829 6.80609,-10.208133 12.85743,-10.1971501 4.70123,0.00849 9.16346,2.7237291 11.16876,6.7960161 0.77693,1.577766 0.88034,2.038492 0.88034,3.922487 0,1.928463 -0.0944,2.325317 -0.97705,4.107066 -1.10689,2.234457 -2.85488,4.09492 -4.81705,5.127009 -4.2539,2.237526 -10.49287,-1.386284 -10.47197,-6.082483 0.006,-1.431596 0.67576,-3.15373 1.51622,-3.900794 0.49556,-0.440486 0.488,-0.378979 -0.0949,0.772446 -1.74939,3.45549 0.37948,7.051974 4.75466,8.032475 2.78799,0.6248 5.76115,-1.067277 7.06192,-4.019056 0.8766,-1.989216 0.89264,-5.131363 0.0351,-6.872366 -1.31574,-2.671221 -4.2775,-4.707443 -7.65954,-5.265973 -5.35307,-0.884042 -9.58386,2.401662 -11.19279,8.692517 -1.54932,6.057794 0.44866,13.451946 5.77269,21.363557 4.64572,6.90363 9.34579,12.098033 14.24515,15.743375 1.46636,1.091038 2.89417,2.125535 3.1729,2.298877 0.27873,0.173344 0.38581,0.322172 0.23796,0.330729 -0.14785,0.0085 -1.49508,-0.692907 -2.99385,-1.558811 z m -77.99361,0.981432 c 0.0787,-0.253354 0.0267,-2.08847 -0.11546,-4.078031 -0.48284,-6.75636 -0.40562,-8.976437 0.3851,-11.071738 0.63592,-1.685089 2.99638,-5.582624 3.23592,-5.343081 0.0549,0.05491 -0.30441,0.981906 -0.79848,2.059999 -1.40887,3.074228 -1.75184,5.103341 -1.75184,10.364324 0,4.434533 -0.29577,7.302767 -0.83859,8.1323 -0.21478,0.328228 -0.23496,0.317198 -0.11665,-0.06377 z M 291.56425,41.586822 c -0.12116,-0.327422 -0.47541,-1.284388 -0.78722,-2.126591 -0.65471,-1.768478 -0.69244,-2.071619 -0.23617,-1.898497 0.18191,0.06902 1.37954,-0.857448 2.66142,-2.058823 l 2.33074,-2.184318 -1.03931,-2.645834 -1.03931,-2.645833 -2.84067,-0.07538 c -3.07385,-0.08157 -3.71729,0.126153 -3.42257,1.104921 0.10562,0.350795 0.0765,0.459722 -0.0785,0.293376 -0.20595,-0.220999 -0.90339,-1.928096 -1.83776,-4.497917 -0.12693,-0.349078 0.11736,-0.205317 0.71773,0.42242 l 0.91019,0.951588 6.21771,0.172283 c 3.41974,0.09475 7.61669,0.172556 9.32656,0.172892 1.70987,2.65e-4 3.10883,0.100158 3.10883,0.221827 0,0.121671 -2.9001,2.912583 -6.44467,6.202026 -6.54992,6.078448 -7.49104,7.197678 -7.16026,8.515551 0.20858,0.831001 -0.086,0.889114 -0.38676,0.07631 z m 9.46586,-13.085861 0.95398,-0.848884 -3.59394,-0.01101 c -1.97665,-0.0061 -3.6671,0.06219 -3.75658,0.151664 -0.14179,0.141785 0.18833,1.142672 1.37255,4.16152 l 0.29512,0.752327 1.88748,-1.678366 c 1.03812,-0.923102 2.31672,-2.060366 2.84139,-2.527247 z M 56.811242,37.422955 c -0.07916,-0.761527 -0.280789,-1.023417 -1.154243,-1.499135 -1.795137,-0.977712 -16.320513,-5.957678 -16.930547,-5.804569 -0.308385,0.0774 -0.75498,0.531259 -0.992425,1.008576 -0.637622,1.281745 -0.569042,0.220585 0.0929,-1.43746 0.981374,-2.458175 2.88112,-8.093327 2.88112,-8.546166 0,-0.240578 0.0893,-0.391147 0.198437,-0.3346 0.109141,0.05655 0.823516,0.379999 1.5875,0.718783 1.325457,0.587763 1.970718,1.294852 0.859896,0.942292 -1.271317,-0.4035 -2.096436,0.569269 -3.197564,3.769751 -0.362891,1.054762 -0.405013,1.442617 -0.165809,1.526781 0.176366,0.06206 1.852986,0.651894 3.725823,1.310751 1.872837,0.65886 3.494911,1.197925 3.604607,1.197925 0.355867,0 1.887585,-5.032917 1.705917,-5.605301 -0.09474,-0.298498 -0.06706,-0.498872 0.0615,-0.445272 3.484589,1.452665 3.99483,1.79661 2.386756,1.608878 -0.52079,-0.0608 -0.993097,0.04097 -1.167511,0.251566 -0.571142,0.689634 -1.957509,4.536762 -1.691939,4.695079 0.144399,0.08608 1.996308,0.751101 4.115353,1.477824 2.972015,1.019247 3.958577,1.257779 4.315445,1.04339 0.668266,-0.401463 1.861444,-2.866324 2.074156,-4.284771 0.173606,-1.157713 0.13603,-1.259099 -0.776806,-2.095648 -0.527582,-0.483492 -0.83797,-0.879078 -0.689745,-0.879078 0.394745,0 2.833068,1.26882 3.020202,1.571609 0.08796,0.142317 -0.621553,2.377003 -1.576691,4.96597 -2.307664,6.255099 -2.169875,5.963229 -2.286328,4.842825 z M 282.88451,20.617325 c -0.75483,-1.52727 -1.2736,-2.776857 -1.15279,-2.776857 0.12086,0 0.28821,0.178593 0.37201,0.396875 0.0867,0.225885 0.48119,0.396875 0.91569,0.396875 0.76235,0 13.24176,-6.007304 14.12349,-6.798713 0.31154,-0.279662 0.40994,-0.660357 0.31916,-1.234588 -0.0874,-0.552651 0.30578,0.01016 1.17608,1.683301 0.71905,1.382447 1.25028,2.572885 1.18054,2.645417 -0.0697,0.07253 -0.27903,-0.0763 -0.46508,-0.330729 -0.18606,-0.254434 -0.59397,-0.462605 -0.90644,-0.462605 -0.6939,0 -13.54582,6.394492 -14.0339,6.982582 -0.22881,0.275698 -0.28866,0.739042 -0.17428,1.348893 0.0958,0.510918 0.13912,0.928373 0.0961,0.927674 -0.043,-7.94e-4 -0.69578,-1.250852 -1.45064,-2.778125 z M 60.751306,22.396944 c -1.305955,-0.748837 -1.69639,-1.305605 -0.662536,-0.944787 1.755077,0.612524 3.129153,-0.131728 4.2506,-2.302285 1.10589,-2.140447 0.716193,-3.655917 -1.194128,-4.643784 -1.162486,-0.601147 -1.985105,-0.443521 -5.216099,0.999471 -3.556981,1.588582 -5.421116,1.892218 -7.004404,1.1409 -1.54854,-0.73483 -2.148002,-1.808184 -2.140739,-3.833075 0.0065,-1.801979 0.630568,-3.3204752 2.119479,-5.1568423 L 51.544993,6.8653211 52.762714,7.52425 c 1.584765,0.8575384 1.712259,1.1057388 0.465596,0.9063884 -0.801071,-0.1280953 -1.165696,-0.041328 -1.746645,0.4156446 -1.469606,1.155994 -2.220208,3.704388 -1.491911,5.065228 0.157237,0.293793 0.69737,0.706101 1.200304,0.916241 1.18414,0.494766 2.230874,0.220483 5.462944,-1.431507 2.269107,-1.15979 2.570991,-1.244319 4.444003,-1.244319 1.793547,0 2.113973,0.07967 2.981388,0.74128 2.019192,1.540111 2.440202,3.916834 1.173308,6.623632 -0.89649,1.915409 -2.21956,3.617767 -2.803914,3.607711 -0.242432,-0.0042 -1.00585,-0.331595 -1.696481,-0.727605 z m 220.423914,-6.20292 c -2.0919,-2.825131 -2.14127,-3.62104 -0.54107,-8.7212936 l 1.13609,-3.62086 -0.87328,-1.335323 c -0.4803,-0.7344278 -0.99235,-1.3361776 -1.13787,-1.3372227 -0.35658,-0.00265 -3.49414,2.1953591 -4.56017,3.1945025 -0.846,0.7929298 -0.85138,0.8133477 -0.45955,1.7511289 0.21807,0.5218642 0.35377,0.9915207 0.30162,1.0436807 -0.0836,0.083635 -1.72953,-2.2451457 -3.20563,-4.5357177 l -0.51537,-0.7997428 0.5362,0.4630208 c 0.7464,0.6445171 1.10951,0.5894335 2.79168,-0.4235106 2.35273,-1.41673262 10.61763,-7.2026621 11.18349,-7.8291266 0.43725,-0.4840949 0.47106,-0.690372 0.22143,-1.3517642 -0.16206,-0.4292706 -0.21569,-0.7765045 -0.11917,-0.7716282 0.28136,0.014208 4.48887,6.3762361 4.93178,7.45711453 0.22167,0.54103058 0.40042,1.31493683 0.39722,1.71979167 -0.0101,1.2665102 -0.91427,2.8562115 -2.01343,3.5394847 -0.88868,0.5524209 -1.34617,0.6362012 -3.47403,0.6362012 -1.94765,0 -2.4756,0.081449 -2.57259,0.396875 -0.9566,3.1106745 -1.98792,7.4950584 -1.98663,8.4456214 0,0.666419 0.18161,1.556806 0.40156,1.978639 0.56155,1.07679 0.32115,1.13121 -0.44228,0.100129 z m 4.91313,-12.2184715 c 2.4053,-1.0049907 3.9647,-3.47147885 3.33605,-5.2766145 -0.50795,-1.4586215 -1.59163,-2.8816194 -2.09439,-2.7501453 -0.92268,0.2412815 -6.38032,4.24453841 -6.38032,4.68004258 0,0.61446042 1.4074,2.76796502 2.14794,3.28667002 0.75573,0.5293334 1.81661,0.5506323 2.99072,0.060047 z m 17.3437,10.1448865 c -0.18931,-0.355079 -1.05791,-1.389737 -1.93024,-2.299242 -0.87228,-0.909505 -1.47283,-1.653646 -1.33456,-1.653646 0.51631,0 4.59494,2.686873 4.59494,3.026987 0,0.194685 -0.2218,0.627917 -0.49292,0.962736 l -0.49297,0.608762 z M 65.181999,7.0980327 c -1.869778,-0.5934974 -4.045833,-2.158103 -5.071528,-3.6464795 -2.928426,-4.24943328 -1.93404,-8.9390723 2.984209,-14.0738922 1.034786,-1.080351 1.965553,-1.964277 2.068367,-1.964277 0.264129,0 3.173902,2.385753 3.289475,2.6970785 0.05254,0.1415203 -0.26897,0.068826 -0.714465,-0.1615495 -2.360824,-1.220833 -5.348372,0.6251365 -7.287773,4.5030259 -0.943094,1.8857542 -1.078394,2.9911702 -0.577149,4.71540419 0.538353,1.85186371 2.686494,4.11500371 4.883449,5.14487321 1.976099,0.926338 5.080886,0.9800325 6.954187,0.120269 2.473547,-1.1352556 5.236953,-4.45985373 5.242705,-6.3073942 0.0013,-0.4387162 -0.242718,-1.2551568 -0.542406,-1.8143114 -0.299689,-0.5591545 -0.496293,-1.0652416 -0.436896,-1.1246379 0.0594,-0.059399 0.67297,0.4960091 1.363496,1.2342389 1.463804,1.5649258 1.460992,1.8405925 -0.04408,4.31911391 C 74.131036,5.9475503 69.393394,8.4347924 65.181999,7.0980327 Z M 266.77881,-3.5244007 c -0.71897,-0.8366152 -2.18821,-2.446028 -3.26496,-3.5764735 -1.07675,-1.1304455 -1.8833,-2.129782 -1.79233,-2.2207511 0.091,-0.090969 0.3477,-0.014102 0.57052,0.1708229 0.33561,0.2785349 0.57504,0.2221813 1.39545,-0.3284352 1.14929,-0.7713294 10.30464,-9.2276644 10.88037,-10.0496534 0.34425,-0.491461 0.33713,-0.642493 -0.0629,-1.339572 -0.24802,-0.432112 -0.40838,-0.828194 -0.35639,-0.880184 0.052,-0.05199 1.45471,1.40748 3.11711,3.243265 1.66243,1.835782 3.32026,3.577476 3.68406,3.870428 0.44741,0.360273 0.55126,0.572024 0.32096,0.654339 -0.18729,0.06693 -0.68072,0.407966 -1.09653,0.757848 -0.93248,0.784612 -1.63338,0.868498 -0.95034,0.113737 0.62318,-0.688597 0.28853,-1.495042 -1.42306,-3.429413 l -1.27262,-1.438283 -0.76578,0.60075 c -0.42116,0.330414 -1.57424,1.380424 -2.56241,2.333357 l -1.79664,1.732609 1.28361,1.486177 c 0.70599,0.817396 1.66074,1.664769 2.12164,1.883051 0.46093,0.2182812 0.84064,0.463251 0.84379,0.5443802 0.006,0.1551146 -2.29918,1.8368698 -2.5178,1.8368698 -0.0697,0 0.0106,-0.2201545 0.17872,-0.4892331 0.45874,-0.734494 0.0941,-1.6043699 -1.33987,-3.1967039 l -1.29406,-1.436984 -2.52715,2.319761 c -1.38994,1.2758685 -2.59758,2.5416352 -2.68365,2.8128199 -0.22365,0.7046569 0.43799,1.8307976 1.82893,3.1129182 1.23797,1.1411267 2.08743,1.3714571 3.08632,0.8368638 0.28148,-0.1506405 0.51178,-0.1664626 0.51178,-0.03516 0,0.307213 -1.99481,1.6319686 -2.45741,1.6319686 -0.19365,0 -0.94034,-0.6845036 -1.65932,-1.5211187 z M 80.593442,-8.7307763 c -1.425414,-0.50868 -2.521667,-1.4001407 -6.594475,-5.3625547 -1.990149,-1.936202 -3.779359,-3.520368 -3.976026,-3.520368 -0.196665,0 -0.622192,0.185346 -0.945608,0.411877 -1.154999,0.80899 -0.556882,-0.0592 1.336413,-1.939854 1.975863,-1.962679 2.646937,-2.408931 1.893623,-1.259226 -0.400743,0.611608 -0.392898,0.700913 0.125539,1.428991 1.084744,1.523381 7.742373,7.682463 8.921144,8.253097 1.64623,0.7969259 3.898694,0.643052 5.208249,-0.355795 1.239007,-0.945036 2.076575,-2.359623 2.236333,-3.776996 0.229388,-2.035133 -0.70929,-3.446039 -5.321102,-7.998026 -2.242555,-2.213467 -4.255553,-4.024485 -4.473326,-4.024485 -0.217776,0 -0.544174,0.178594 -0.725332,0.396875 -0.181157,0.218281 -0.441774,0.396875 -0.579149,0.396875 -0.137374,0 0.502283,-0.832284 1.421461,-1.849517 1.648457,-1.824315 2.347698,-2.342284 1.81283,-1.342876 -0.150641,0.281477 -0.273892,0.656682 -0.273892,0.833794 0,0.177112 1.843157,2.188641 4.095904,4.470062 2.946143,2.983645 4.259876,4.513532 4.680035,5.450059 1.131287,2.52163 0.545531,5.258827 -1.630588,7.61964 -2.069848,2.2455193 -4.743437,3.0493817 -7.212033,2.1684277 z M 254.3138,-16.786508 c -1.67983,-0.624293 -3.462,-1.822567 -5.37868,-3.616455 -0.80036,-0.749088 -2.15444,-1.92437 -3.00906,-2.611737 -1.5139,-1.217615 -1.53091,-1.245486 -0.66146,-1.083781 1.10875,0.206217 1.34155,-0.02572 6.63696,-6.612093 4.69932,-5.844969 4.6749,-5.803292 3.89026,-6.638502 -1.33784,-1.424059 -0.17656,-0.722786 2.93937,1.775042 4.34429,3.482517 5.60733,4.751546 6.6597,6.69127 0.78235,1.442027 0.87444,1.834693 0.87444,3.728443 0,1.782736 -0.11689,2.354699 -0.74093,3.625479 -0.85104,1.733039 -2.74746,3.564967 -4.60893,4.452191 -1.77548,0.846236 -4.75321,0.977107 -6.60167,0.290143 z m 5.10722,-1.610908 c 2.76812,-1.587651 4.59535,-4.633312 4.59535,-7.659611 0,-1.829176 -0.4739,-3.299563 -1.58295,-4.911519 -1.00246,-1.457023 -3.62705,-3.632454 -4.25336,-3.525451 -0.40723,0.06957 -7.79551,8.942883 -9.0605,10.881651 -0.57373,0.879309 -0.42769,1.469856 0.6737,2.724267 1.83065,2.084993 4.178,3.22776 6.68249,3.253253 1.29147,0.01315 1.84069,-0.129056 2.94527,-0.76259 z M 96.799708,-19.611115 c 0,-0.11543 0.191931,-0.421958 0.426516,-0.68117 0.394409,-0.435819 0.378611,-0.556882 -0.209894,-1.608334 -0.719733,-1.285912 -8.068495,-10.933038 -8.892336,-11.673461 -0.500089,-0.449453 -0.592217,-0.453491 -1.354394,-0.05935 -1.56056,0.806998 -0.785053,0.0021 1.899846,-1.971934 1.484455,-1.091406 3.335911,-2.500053 4.114345,-3.130328 0.778433,-0.630272 1.443172,-1.106522 1.477197,-1.058333 0.40585,0.574799 1.215803,2.168792 1.215803,2.392709 0,0.159755 -0.217733,0.09342 -0.483854,-0.147415 -0.710856,-0.643316 -1.13737,-0.551778 -2.893663,0.62103 -2.501054,1.67014 -2.492632,1.454515 -0.174649,4.472241 1.175681,1.530591 2.164064,2.584098 2.333003,2.486726 1.018485,-0.587028 3.681021,-2.898021 3.842838,-3.335454 0.16796,-0.454043 0.310586,-0.336573 1.049591,0.864463 0.820955,1.33422 0.998773,2.047396 0.300792,1.206381 -0.184076,-0.2218 -0.540311,-0.40327 -0.791631,-0.40327 -0.431355,0 -3.96058,2.356398 -3.971208,2.651503 -0.0098,0.270719 4.104746,5.38125 4.555138,5.65784 0.563213,0.345876 1.676742,-0.201084 3.358942,-1.6499 1.18384,-1.019601 1.45978,-1.912247 0.9474,-3.064825 -0.16181,-0.363989 -0.137,-0.451961 0.0882,-0.312779 0.34874,0.215534 1.3641,2.098071 1.3641,2.529125 0,0.223118 -2.56552,2.23923 -7.713193,6.061411 -0.268888,0.199652 -0.488889,0.268558 -0.488889,0.153124 z m 12.941642,-9.487541 0.59847,-0.63704 -0.52499,-1.186836 c -0.75341,-1.703205 -6.08321,-11.264429 -6.86342,-12.312396 -0.64859,-0.871196 -0.80328,-0.903835 -2.05066,-0.432681 -1.213224,0.458245 0.32981,-0.626573 2.64583,-1.860145 1.90753,-1.015992 2.26282,-1.138706 1.78594,-0.616842 -0.32742,0.358304 -0.59531,0.810054 -0.59531,1.003893 0,0.36603 4.98045,9.415023 6.52233,11.850441 0.75426,1.191353 0.99701,1.389063 1.70557,1.389063 1.02787,0 3.79412,-1.447147 4.51286,-2.360872 0.38536,-0.489913 0.49694,-0.923584 0.39664,-1.541648 -0.21385,-1.317863 0.26007,-1.021805 0.7564,0.472517 0.32291,0.972185 0.36493,1.426067 0.15541,1.678522 -0.15794,0.190312 -1.62746,1.041707 -3.26559,1.891985 -1.63813,0.850278 -3.63326,1.940105 -4.43362,2.42184 -1.72279,1.036931 -2.1692,1.116602 -1.34586,0.240199 z m 125.65879,-0.509331 c -3.56721,-1.33369 -5.7796,-3.91618 -5.7796,-6.746433 0,-1.408247 0.78206,-3.223024 3.04078,-7.056154 3.38958,-5.752247 3.55185,-6.192217 2.49281,-6.759002 -0.30351,-0.16243 -0.48805,-0.359109 -0.41009,-0.437063 0.17792,-0.177919 4.93026,2.622976 4.93049,2.905894 1e-4,0.11426 -0.24785,0.07501 -0.551,-0.08723 -0.4429,-0.23703 -0.65649,-0.199877 -1.08724,0.189128 -0.6354,0.573812 -4.47124,6.947265 -5.54624,9.215358 -1.65432,3.490362 -0.60131,6.380739 2.79748,7.678753 2.38608,0.911249 4.53721,-0.05029 6.49029,-2.901119 1.66976,-2.437286 5.04064,-8.489598 5.04064,-9.050332 0,-0.340945 -0.24007,-0.731949 -0.55183,-0.898803 -0.30351,-0.16243 -0.48748,-0.35968 -0.40882,-0.438335 0.14053,-0.140531 4.40023,2.245765 4.40023,2.465025 0,0.0617 -0.28054,0.04178 -0.62342,-0.04428 -0.8677,-0.217776 -1.13047,0.10473 -3.93896,4.834313 -2.50683,4.221592 -3.96637,6.032625 -5.50157,6.82651 -1.16754,0.603755 -3.58231,0.756771 -4.79395,0.303776 z m -115.46497,-5.31432 c 0.28248,-0.230161 0.59079,-0.418473 0.68514,-0.418473 0.59505,0 0.77298,-1.962428 0.94612,-10.434513 0.10278,-5.029561 0.26847,-9.144654 0.3682,-9.144654 0.0997,0 2.87942,2.903632 6.1771,6.452515 6.14249,6.610388 7.17733,7.47402 8.56375,7.146955 1.32839,-0.313375 0.2972,0.311367 -1.72476,1.044935 -2.18442,0.792509 -2.46761,0.838348 -2.29016,0.370697 0.069,-0.181901 -0.85745,-1.379551 -2.05883,-2.661449 l -2.18432,-2.330725 -2.64583,1.039307 -2.64583,1.039302 -0.0754,2.84068 c -0.0816,3.073842 0.12615,3.717269 1.10492,3.42256 0.35079,-0.105627 0.45972,-0.07647 0.29337,0.07851 -0.23725,0.221057 -3.14388,1.390118 -4.49791,1.809086 -0.52186,0.161475 -0.52208,0.157956 -0.0156,-0.254738 z m 7.59579,-10.629397 c 0.12776,-0.07896 -0.87068,-1.403874 -2.21875,-2.944256 l -2.45105,-2.800691 -0.0794,2.884707 c -0.0437,1.586586 -0.009,3.266997 0.0762,3.734243 l 0.1556,0.849535 2.14255,-0.789985 c 1.17841,-0.434491 2.24709,-0.854591 2.37486,-0.933553 z m 95.38672,9.105262 c -1.3761,-0.53644 -1.98411,-0.896538 -1.80916,-1.071486 0.35628,-0.356285 0.0622,-6.358969 -0.3242,-6.61607 -0.50142,-0.333679 -5.175,-1.838637 -5.42184,-1.745906 -0.50267,0.188841 -3.46839,4.084918 -3.4687,4.556829 -1.8e-4,0.274997 0.20804,0.66943 0.4627,0.876517 0.3315,0.269568 0.35028,0.339738 0.0661,0.247036 -3.05705,-0.997408 -4.7625,-1.632564 -4.7625,-1.77369 0,-0.09535 0.29546,-0.116877 0.65657,-0.04784 1.45349,0.277849 1.9216,-0.139089 7.57974,-6.751114 6.84973,-8.00451 6.26116,-7.369864 6.54979,-7.062481 0.13079,0.139284 0.4244,4.122775 0.65247,8.852202 0.22808,4.729427 0.55155,8.989528 0.71883,9.466892 0.17534,0.500388 0.62813,1.035476 1.06921,1.263566 0.42078,0.217598 0.76506,0.452104 0.76506,0.521128 0,0.25808 -0.71956,0.06976 -2.73411,-0.715579 z m -2.08294,-14.300106 -0.0777,-1.912014 -2.33512,2.862144 c -1.28431,1.57418 -2.29634,2.89332 -2.24895,2.931423 0.0474,0.0381 1.09818,0.430977 2.33511,0.873061 l 2.24896,0.803783 0.0777,-1.823193 c 0.0428,-1.002751 0.0428,-2.683593 0,-3.735204 z m -18.2017,7.84155 c -1.81901,-0.501557 -4.20026,-1.108408 -5.29167,-1.348568 -2.1238,-0.467333 -2.94984,-0.876797 -1.76882,-0.876797 0.52008,0 0.85636,-0.227071 1.21873,-0.822947 0.52089,-0.856538 4.27835,-15.734561 4.34723,-17.213328 0.0319,-0.684557 -0.13047,-0.959928 -0.8597,-1.458006 -0.49446,-0.337729 -0.80281,-0.614053 -0.68522,-0.614053 0.58867,0 6.1179,1.44665 6.34674,1.660539 0.16591,0.15507 -0.0314,0.187737 -0.52917,0.0876 -1.54893,-0.311633 -1.63434,-0.116401 -3.71412,8.48968 -2.09535,8.670495 -2.19558,9.323767 -1.52384,9.931689 1.1552,1.045435 5.05322,1.856216 6.13662,1.276403 0.32168,-0.172156 0.81618,-0.692367 1.09889,-1.156023 0.40685,-0.66725 0.51301,-0.732684 0.5092,-0.313843 -0.006,0.674648 -0.97828,2.832145 -1.39566,3.097466 -0.39942,0.253902 -0.0313,0.323924 -3.88921,-0.739809 z m -54.76875,-1.107866 c 0,-0.144121 0.23812,-0.324302 0.52917,-0.400415 0.44743,-0.117004 0.52916,-0.360894 0.52916,-1.579049 0,-1.774781 -1.94374,-13.666375 -2.3614,-14.446775 -0.20505,-0.383152 -0.55671,-0.566261 -1.08749,-0.566261 -1.95051,0 -0.40902,-0.467479 3.83188,-1.162064 7.55388,-1.237196 10.46143,-0.795414 12.95893,1.96902 1.62497,1.79865 2.11917,3.177924 2.12832,5.939919 0.007,2.099892 -0.0826,2.565508 -0.75782,3.940704 -1.90754,3.884952 -4.12739,4.941526 -12.51568,5.957063 -1.33841,0.162036 -2.61833,0.365551 -2.84427,0.452252 -0.22594,0.0867 -0.4108,0.03972 -0.4108,-0.104394 z m 10.09532,-2.499582 c 3.10219,-1.425997 4.23395,-3.159237 4.23395,-6.484057 0,-2.694332 -0.72297,-4.661837 -2.31492,-6.299829 -1.55494,-1.599923 -3.1739,-2.297958 -5.67311,-2.446035 -1.99196,-0.118024 -4.87973,0.298697 -5.15486,0.743876 -0.0802,0.12972 0.39261,3.414787 1.05064,7.300149 0.86501,5.107553 1.32551,7.207981 1.6625,7.583041 0.41201,0.458544 0.71654,0.503322 2.62392,0.385805 1.51244,-0.09318 2.58075,-0.327353 3.57188,-0.78295 z m 12.65138,-0.235368 c 0.35969,-0.143547 0.74482,-0.403889 0.85584,-0.578543 0.11102,-0.174654 0.20192,-3.651299 0.20201,-7.725882 1.6e-4,-8.130383 -0.0787,-8.611978 -1.4544,-8.884148 -0.43263,-0.08559 1.59464,-0.208868 4.50506,-0.273946 2.91042,-0.06508 5.2989,-0.114722 5.30774,-0.110322 0.15625,0.07776 -0.27,2.786124 -0.43848,2.786124 -0.13148,0 -0.23905,-0.223546 -0.23905,-0.496769 0,-0.88588 -0.74583,-1.190052 -3.20645,-1.307695 l -2.36562,-0.113102 0.0741,3.538471 0.074,3.53847 2.51354,-0.09286 c 1.38245,-0.05107 2.66525,-0.216865 2.85067,-0.368432 0.18541,-0.151567 0.36991,-0.228845 0.40998,-0.171728 0.18241,0.259966 -0.16135,3.146558 -0.37472,3.146558 -0.13205,0 -0.2401,-0.233937 -0.2401,-0.519858 0,-0.807666 -0.8858,-1.096563 -3.1047,-1.012566 l -2.0398,0.07722 0.0839,3.43786 c 0.0461,1.890821 0.1958,3.646993 0.3326,3.902604 0.20884,0.390212 0.62911,0.464745 2.62067,0.464745 2.01916,0 2.45064,-0.0787 2.9011,-0.529168 0.29105,-0.291042 0.52917,-0.700733 0.52917,-0.910426 0,-0.209693 0.13512,-0.464772 0.30028,-0.566841 0.21744,-0.134389 0.24806,0.162568 0.111,1.076545 -0.32066,2.138361 0.10546,1.99007 -5.66511,1.971451 -3.69754,-0.01193 -5.0085,-0.09208 -4.54322,-0.277762 z"
       style="opacity:0.5;fill:none;fill-opacity:1;stroke:#000000;stroke-width:25.9019;stroke-miterlimit:4;stroke-dasharray:none;filter:url(#filter951)"
       transform="matrix(0.3875472,0,0,0.38460119,4.8507307,-45.643627)" />
    <path
       id="path823"
       d="m 72.05009,39.564909 c -8.611086,-0.769991 -17.012601,-3.826843 -23.811245,-8.663603 -0.984967,-0.700732 -1.135959,-0.844762 -1.050908,-1.002479 0.08906,-0.165136 0.216577,-0.100873 1.233667,0.621654 6.919675,4.915688 15.232694,7.91705 23.936101,8.64197 1.851503,0.154217 6.12051,0.127545 8.055696,-0.05033 16.622899,-1.52792 31.044829,-11.326058 38.540499,-26.184117 0.47945,-0.950388 0.67148,-1.240908 0.79027,-1.195672 0.0863,0.03288 0.17969,0.05976 0.20754,0.05976 0.078,0 -1.81321,3.611224 -2.37149,4.528271 -2.228,3.659769 -4.39831,6.408652 -7.43235,9.413672 -3.78043,3.744288 -7.57514,6.462638 -12.360608,8.854577 -5.172809,2.585547 -10.291296,4.11004 -16.252358,4.840617 -1.608809,0.19717 -7.805739,0.28582 -9.484814,0.135676 z M 32.825923,33.580968 c -0.913038,-0.290004 -2.142431,-1.144281 -3.146086,-2.186142 -0.725349,-0.752965 -1.012835,-1.1473 -1.433522,-1.966362 -0.608196,-1.184118 -0.736416,-1.837717 -0.55119,-2.8097 0.659633,-3.461457 3.751313,-7.991594 7.189741,-10.534888 1.597666,-1.181745 3.333629,-1.849563 4.807842,-1.849563 1.103623,0 2.581347,0.735373 3.21021,1.59753 0.47274,0.648122 0.501073,1.279975 0.09385,2.092972 -0.582866,1.16365 -2.305654,2.902539 -4.22043,4.259862 -1.405725,0.996483 -2.563463,1.483942 -2.563463,1.079337 0,-0.07074 0.627863,-0.746168 1.395251,-1.500944 2.370584,-2.331649 3.313762,-3.562888 3.319269,-4.333017 0.0091,-1.272472 -2.11773,-0.571775 -4.032627,1.328566 -1.912944,1.898399 -3.88246,4.810792 -4.949407,7.318845 -0.792368,1.862624 -0.936465,2.732338 -0.567013,3.422293 0.317617,0.593155 0.749048,0.812486 1.598183,0.812486 1.951034,0 3.832053,-1.016724 6.212652,-3.358053 3.172441,-3.1201 6.592322,-8.5646 10.606098,-16.885039 2.401184,-4.9775813 6.29632,-13.8907677 6.468562,-14.8019148 0.167653,-0.8868635 -0.01058,-0.922416 -2.332251,-0.4652444 -5.146461,1.013428 -9.386111,2.4716242 -10.388933,3.5731912 l -0.386756,0.4248382 0.06359,1.23000457 c 0.03497,0.6765058 0.159911,1.66501933 0.277639,2.19671123 0.327523,1.4791954 0.351772,1.7670617 0.162017,1.9233482 -0.289661,0.238572 -0.700841,0.028499 -1.44777,-0.7396303 -1.132768,-1.1649378 -2.133243,-3.03393038 -2.457173,-4.5902576 -0.288104,-1.3842027 -0.169954,-1.9098756 0.595719,-2.6504752 1.731368,-1.6746728 6.228714,-2.9453759 14.063539,-3.9735949 1.127921,-0.1480249 2.173919,-0.33211 2.324434,-0.4090784 0.150516,-0.076968 0.565796,-0.480303 0.922847,-0.8962988 0.800444,-0.932594 1.166994,-1.141478 1.704107,-0.971118 1.306689,0.4144501 2.795603,1.5531207 3.258447,2.4919469 0.418295,0.8484621 0.324578,1.3407401 -0.721245,3.7885921 -5.941354,13.906333 -12.171191,24.946641 -17.612292,31.21194 -2.045661,2.355529 -4.571937,4.531237 -6.287522,5.415016 -1.744765,0.898805 -3.784618,1.195883 -5.176317,0.753841 z m 61.820288,-0.157929 c -0.405014,-0.274732 -0.96319,-0.981813 -1.304092,-1.651989 -0.373324,-0.733915 -0.449528,-1.300836 -0.326881,-2.431898 0.205738,-1.897349 0.783807,-3.614098 2.325462,-6.906138 0.796235,-1.700279 0.948285,-2.141882 0.613499,-1.781826 -0.07496,0.08062 -0.968299,1.176891 -1.985195,2.43616 -2.976002,3.685314 -4.025697,4.769824 -5.135942,5.306269 -0.554239,0.267787 -1.150368,0.207997 -1.885669,-0.18917 -0.648185,-0.350102 -1.14659,-0.915423 -1.550836,-1.75905 -0.579709,-1.209802 -0.456492,-2.448806 0.453251,-4.557663 0.23447,-0.543514 0.450222,-1.049084 0.479451,-1.123485 0.02922,-0.0744 -0.564583,0.377609 -1.319583,1.004467 -4.336045,3.600121 -8.870456,6.491179 -10.661916,6.797849 -1.789216,0.306296 -4.047934,-0.922781 -4.917598,-2.675898 -0.273794,-0.551921 -0.312603,-0.736938 -0.312115,-1.487848 3.88e-4,-0.82142 0.185589,-1.975985 0.411009,-2.56439 0.05847,-0.15261 0.0843,-0.277467 0.05741,-0.277467 -0.0269,0 -0.521778,0.381986 -1.099751,0.848849 -3.889292,3.141665 -7.979,5.671933 -9.622273,5.953238 -1.789217,0.306293 -4.047931,-0.922781 -4.917598,-2.675901 -0.273791,-0.551922 -0.312604,-0.736938 -0.312112,-1.487853 7.76e-4,-1.443689 0.352323,-2.712973 1.237446,-4.469996 1.087752,-2.159248 2.6874,-4.383619 4.351876,-6.051446 2.393659,-2.398469 3.988338,-3.126558 5.409136,-2.469651 0.300752,0.13906 0.731391,0.393824 0.956974,0.566152 0.225584,0.172332 0.533978,0.408692 0.685319,0.52525 l 0.275163,0.211919 0.374421,-1.199225 c 0.414079,-1.3262397 0.765014,-2.0175065 1.073575,-2.1146914 0.301063,-0.094831 1.348215,0.4099003 1.797281,0.8662874 0.352196,0.357941 0.380979,0.429207 0.328923,0.814378 -0.168517,1.246823 -2.930558,5.46774 -4.357836,6.659588 -0.430774,0.359714 -0.834928,0.499947 -0.906609,0.314577 -0.03077,-0.07958 0.225747,-0.955661 0.570032,-1.946859 0.344285,-0.99119 0.613355,-1.812879 0.597931,-1.825967 -0.01542,-0.01308 -0.230164,-0.124991 -0.477202,-0.248664 -0.321707,-0.161055 -0.545334,-0.206961 -0.788101,-0.161763 -1.123495,0.209169 -3.726545,2.835572 -5.506414,5.555818 -1.3254,2.025664 -2.015365,3.612405 -2.100056,4.829568 -0.09528,1.369299 0.417675,1.90373 1.624691,1.692741 1.685466,-0.294635 6.123699,-2.671351 10.418245,-5.579071 1.550925,-1.050092 1.561246,-1.059645 2.098491,-1.942782 0.837152,-1.376122 2.272317,-3.204759 3.409353,-4.344082 2.393658,-2.398473 3.988338,-3.126561 5.40914,-2.469655 0.300748,0.139053 0.731387,0.393824 0.956974,0.566156 0.225583,0.172332 0.533974,0.408689 0.685315,0.525246 l 0.275163,0.211919 0.374424,-1.199232 c 0.414075,-1.326228 0.765015,-2.0174991 1.073572,-2.1146839 0.301066,-0.094827 1.348219,0.4098964 1.797285,0.8662909 0.352195,0.357937 0.380978,0.429204 0.328919,0.814378 -0.168513,1.246819 -2.930554,5.467736 -4.357836,6.659577 -0.430775,0.359721 -0.834928,0.499955 -0.906605,0.314581 -0.03077,-0.07957 0.224657,-0.952538 0.567617,-1.939913 0.342964,-0.987383 0.623567,-1.812556 0.623567,-1.833721 0,-0.02115 -0.219177,-0.134949 -0.487057,-0.252845 -0.327385,-0.144083 -0.594153,-0.194573 -0.813733,-0.154009 -1.109753,0.204992 -3.723247,2.84651 -5.494148,5.55306 -1.3254,2.025664 -2.015366,3.612401 -2.10006,4.82956 -0.09528,1.3693 0.417675,1.903726 1.624694,1.692746 2.047994,-0.35801 8.304931,-3.903114 12.738185,-7.217307 0.841477,-0.629061 1.150139,-0.944515 1.873573,-1.914787 2.121395,-2.845199 4.194629,-4.83981 5.937285,-5.712101 1.506125,-0.753895 3.022318,-0.372159 4.684229,1.179364 0.444521,0.415 0.823046,0.736939 0.841166,0.715428 0.0883,-0.104835 2.09875,-3.3940711 3.00931,-4.9235454 1.52872,-2.567786 2.91801,-5.0591248 4.00016,-7.17323527 l 0.96322,-1.88177285 -0.0706,-0.84074978 c -0.0499,-0.5945126 -0.0346,-0.8836866 0.052,-0.9873443 0.43635,-0.5217615 2.7538,-0.6992203 3.57521,-0.2737707 0.46745,0.2421296 0.83153,0.8244965 0.83589,1.3371238 0.005,0.5471375 -1.18203,2.57762791 -5.62013,9.6162374 -4.34837,6.8962911 -6.62185,10.7900401 -8.585508,14.7041801 -1.089384,2.171466 -1.570791,3.307855 -2.196966,5.186051 -0.724055,2.171785 -0.949634,3.349369 -0.907128,4.73546 0.03236,1.055323 0.02259,1.120959 -0.17075,1.147508 -0.112791,0.01546 -0.372704,-0.08556 -0.577585,-0.224531 z m -5.734377,-7.737172 c 1.604322,-1.00507 6.013446,-5.436653 8.300401,-8.342696 0.939802,-1.194209 2.061836,-2.772455 2.061836,-2.900166 0,-0.117334 -0.562951,-0.583678 -0.935205,-0.77471 -0.162464,-0.08337 -0.535804,-0.196842 -0.82965,-0.252144 -0.483771,-0.09104 -0.586661,-0.07511 -1.088724,0.168659 -0.35792,0.173786 -0.90521,0.616166 -1.543946,1.247989 -2.793936,2.763698 -6.074484,7.727926 -6.616597,10.012426 -0.27021,1.138677 -0.124263,1.326878 0.651885,0.840642 z M 27.497099,-0.05867865 C 25.125009,-0.4020929 22.818071,-1.0539419 19.893575,-2.207134 17.461699,-3.1660755 16.63182,-3.3727525 14.93613,-3.4417461 c -1.065259,-0.043341 -1.652231,-0.00788 -2.922348,0.1764512 -0.874141,0.1268761 -2.1199837,0.2353567 -2.76854,0.2410642 l -1.179193,0.010384 -0.093565,-0.5855399 c -0.051461,-0.322042 -0.06777,-0.6111352 -0.036244,-0.6424263 0.1166696,-0.1157804 1.2064759,-0.3560407 3.052155,-0.672879 1.577707,-0.2708285 2.155819,-0.3249688 3.435041,-0.3216728 2.323045,0.006 3.149715,0.2078 6.985586,1.7053409 4.927039,1.9235444 9.307884,2.3809583 12.445925,1.2995213 3.883349,-1.3382929 6.374006,-4.8956809 7.593354,-10.8455375 0.255,-1.244279 0.363086,-1.585832 0.567002,-1.791735 l 0.251944,-0.254398 27.763466,-0.08787 27.763463,-0.08787 1.842233,0.912048 1.842241,0.912047 10.51019,0.474154 c 5.78061,0.260787 10.72938,0.498223 10.99727,0.527637 0.45453,0.04991 0.48708,0.03796 0.48753,-0.178981 0,-0.127855 0.14815,-0.598796 0.32867,-1.046536 0.28855,-0.715759 0.32821,-0.93082 0.32836,-1.780783 0,-0.808694 -0.0425,-1.066512 -0.26111,-1.577266 -0.24682,-0.576732 -0.25777,-0.677416 -0.19778,-1.817496 0.0609,-1.157988 0.075,-1.216805 0.34832,-1.450068 0.39407,-0.336391 0.82946,-0.317465 1.20202,0.05225 0.29739,0.295124 0.29757,0.296183 0.23418,1.253942 -0.0564,0.851906 -0.0363,1.031345 0.18068,1.612608 0.21251,0.569345 0.24335,0.825345 0.2381,1.976908 -0.006,1.224505 -0.0303,1.38906 -0.3324,2.213069 -0.18761,0.511726 -0.32637,1.087117 -0.32637,1.353361 0,0.594116 -0.23277,1.04109 -0.58829,1.129641 -0.15232,0.03794 -1.76655,0.0043 -3.58715,-0.07485 l -3.3102,-0.143826 v 1.0270543 c 9e-5,0.5648799 -0.0294,1.5728858 -0.0656,2.2400131 l -0.0657,1.2129645 0.51113,0.3153114 c 0.55652,0.343322 0.95513,0.9805677 0.95106,1.5204055 -0.003,0.3872087 -0.31457,1.0522034 -0.62648,1.3367622 -1.44121,1.3148514 -4.04512,0.056836 -3.57062,-1.7250441 0.13141,-0.4934587 0.61576,-1.0548495 1.08133,-1.2533114 l 0.317,-0.1351412 0.0675,-1.5479309 c 0.0371,-0.851364 0.0675,-1.8799803 0.0675,-2.2858134 v -0.737879 l -0.84595,-0.06024 c -0.46526,-0.03313 -1.90722,-0.105762 -3.20433,-0.161406 -1.29711,-0.05564 -2.7852,-0.128504 -3.30687,-0.161913 l -0.94847,-0.06075 v 1.8945583 c 0,1.884817 0.001,1.8950166 0.23649,1.983786 0.38593,0.1456181 0.90928,0.6355823 1.05918,0.991623 0.18085,0.4295496 0.17866,1.0892291 -0.005,1.4377008 -0.65147,1.237539 -2.44793,1.5211477 -3.47898,0.5492221 -0.57877,-0.5455799 -0.74045,-1.2746953 -0.44058,-1.9869229 0.1499,-0.3560407 0.67325,-0.8460049 1.05918,-0.991623 0.23558,-0.088819 0.23666,-0.097996 0.23666,-2.005784 v -1.9165603 l -2.84545,-0.121505 -2.84544,-0.121507 -1.876773,-0.91548 -1.876775,-0.915479 -19.656316,0.05172 c -10.810974,0.02845 -20.740662,0.0739 -22.065973,0.100996 -1.325311,0.0271 -4.636022,0.04962 -7.357138,0.05004 -4.669877,7.3e-4 -4.947485,0.01091 -4.947485,0.181405 0,0.305278 -0.601988,2.664634 -0.940533,3.6862125 -1.097583,3.3120105 -2.870216,5.9329445 -5.063694,7.4869449 -1.318716,0.9342655 -3.387807,1.73095148 -5.11447,1.96928114 -1.030207,0.14219475 -3.565707,0.1208417 -4.672237,-0.03935239 z M 26.841863,-5.9903059 c -0.660069,-3.5869626 -0.831382,-5.5150521 -0.825027,-9.2855121 0.0058,-3.43846 0.127815,-5.001206 0.61577,-7.886328 3.037093,-17.957434 16.040093,-32.606772 33.317939,-37.536397 4.361839,-1.244497 7.920995,-1.731009 12.663507,-1.731009 4.156952,0 7.197705,0.350642 10.921142,1.259364 17.352536,4.23496 30.847096,18.188487 34.642306,35.820572 0.6398,2.972404 0.94869,5.548507 1.05843,8.827248 l 0.0656,1.958862 h -0.22128 c -0.21077,0 -0.22128,-0.04482 -0.22128,-0.943007 0,-1.401348 -0.18313,-3.986488 -0.40978,-5.784645 -1.03391,-8.20261 -4.29183,-16.110063 -9.35472,-22.705137 -2.53233,-3.298701 -5.95322,-6.656436 -9.25641,-9.08553 -6.730396,-4.949391 -14.213836,-7.842164 -22.661012,-8.759764 -2.248476,-0.244247 -6.866581,-0.246455 -9.074662,-0.0043 -5.624504,0.61673 -10.311131,1.933887 -15.22697,4.279479 -9.871691,4.710275 -17.932304,13.032758 -22.43119,23.159922 -2.013584,4.532656 -3.238151,9.148048 -3.833855,14.449788 -0.130107,1.157954 -0.177592,2.429415 -0.178617,4.782676 -0.0017,3.9272 0.08603,4.843911 0.932531,9.7434286 0.04889,0.2829934 0.02715,0.3307147 -0.150701,0.3307147 -0.180443,0 -0.229439,-0.1173726 -0.371691,-0.8903902 z M 16.682271,-10.71458 c -0.02621,-0.07409 -0.116822,-0.752906 -0.201349,-1.508466 -0.542856,-4.852402 -0.451154,-10.016749 0.260096,-14.647676 2.382953,-15.515334 11.129371,-29.170095 24.304434,-37.943673 3.976445,-2.648007 8.905646,-5.039816 13.521818,-6.561228 11.046161,-3.640626 23.239229,-3.725429 34.401677,-0.239265 7.03926,2.198444 13.458683,5.696053 19.324903,10.529131 1.56332,1.287992 5.43435,5.13757 6.7695,6.731955 6.18533,7.386404 10.26284,15.84853 12.08792,25.086113 0.16584,0.839512 0.3333,1.766791 0.37212,2.060621 0.0638,0.48276 0.0517,0.534235 -0.12567,0.534235 -0.17108,0 -0.22552,-0.166333 -0.42473,-1.297428 -3.06933,-17.428498 -14.21938,-32.238395 -30.160901,-40.060767 -14.196757,-6.966232 -30.65081,-7.612407 -45.349146,-1.780928 -1.929621,0.765566 -5.861415,2.683369 -7.508409,3.662362 -4.355383,2.588887 -7.435179,4.976194 -11.080798,8.589285 -4.618203,4.577001 -7.75102,8.894375 -10.598577,14.606026 -1.25461,2.516507 -1.994063,4.294014 -2.878592,6.919616 -2.222451,6.597034 -3.192261,13.814467 -2.768865,20.606211 0.07938,1.27326 0.34433,4.049509 0.446153,4.674872 0.02477,0.152109 -0.338757,0.188318 -0.391584,0.039 z m 33.031226,-6.068709 c -0.589211,-1.302957 -0.98349,-2.856966 -0.995725,-3.924529 -0.0044,-0.386285 -0.04525,-0.447069 -0.520658,-0.775303 -0.642577,-0.443647 -1.494378,-1.417712 -2.025849,-2.316623 -0.565571,-0.956596 -1.080555,-1.41763 -2.034673,-1.821523 l -0.592213,-0.250695 0.575517,0.04869 c 1.123969,0.09508 2.020741,0.756015 3.093871,2.280221 0.340212,0.48322 0.840346,1.03399 1.177128,1.296311 1.182829,0.921304 2.995019,1.574086 4.792107,1.726199 1.465536,0.124048 4.501426,-0.23385 5.336707,-0.629138 0.793142,-0.375348 0.414547,-0.632905 -1.368236,-0.930803 l -1.09672,-0.183259 0.871241,-0.07204 c 1.735879,-0.143535 3.250746,-0.569772 3.820491,-1.074968 0.254812,-0.225946 0.299024,-0.326575 0.24219,-0.551287 -0.128088,-0.506473 -1.00079,-0.870343 -2.683458,-1.118855 l -0.918138,-0.135599 1.845693,-0.05252 c 2.028663,-0.05773 2.65321,-0.194813 3.025077,-0.663974 0.231827,-0.292479 0.262998,-0.770034 0.07485,-1.146876 -0.200625,-0.401844 -0.932303,-0.712314 -1.678699,-0.712314 -0.747656,0 -1.99769,-0.160987 -2.602504,-0.335167 -0.367081,-0.105713 -0.136808,-0.122849 1.659253,-0.123473 2.202074,-8.08e-4 2.680764,-0.07516 3.136504,-0.487464 0.301524,-0.272785 0.310189,-0.8596 0.01814,-1.228065 -0.469188,-0.591939 -1.619952,-1.085537 -3.123298,-1.339677 -1.833551,-0.309963 -2.871469,-0.75771 -3.900759,-1.682755 -1.015246,-0.912425 -1.996356,-1.248628 -3.632453,-1.244754 -1.212616,0.0029 -1.83249,0.138079 -3.475283,0.758034 -1.276115,0.48158 -2.449333,0.668389 -3.34428,0.532505 l -0.61448,-0.0933 0.895564,-0.177403 c 0.916723,-0.181594 1.504016,-0.378848 3.077357,-1.033594 0.493224,-0.205254 1.20843,-0.438731 1.589351,-0.518837 0.869547,-0.182868 2.420406,-0.184278 3.35858,-0.003 0.394775,0.07626 0.732407,0.124918 0.7503,0.108137 0.0179,-0.01678 -0.08903,-0.268574 -0.237606,-0.559542 -0.148574,-0.290968 -0.254327,-0.544718 -0.235012,-0.563889 0.105459,-0.104655 1.502555,-0.248748 2.418279,-0.249415 1.697147,-0.0012 3.413977,0.453597 4.76926,1.263502 0.321231,0.191964 0.584053,0.319597 0.584053,0.283626 0,-0.03597 -0.217665,-0.284709 -0.483701,-0.552754 l -0.483706,-0.487354 0.218771,-0.217105 c 0.215499,-0.213862 0.222429,-0.214234 0.463793,-0.02494 0.134762,0.105692 2.428991,2.275684 5.098284,4.822205 2.669298,2.546521 4.904623,4.630038 4.967398,4.630038 0.06277,0 0.108331,-0.07651 0.101239,-0.170032 -0.0082,-0.108456 0.04041,-0.149733 0.134293,-0.113982 0.09193,0.03501 0.168505,-0.02488 0.203989,-0.159541 0.03124,-0.118575 0.09771,-0.190507 0.147691,-0.15985 0.04999,0.03066 0.09088,-0.0069 0.09088,-0.0835 0,-0.07658 -0.253785,-0.35667 -0.563966,-0.622423 -0.310177,-0.265754 -0.563963,-0.54067 -0.563963,-0.610925 0,-0.174173 0.539214,-0.674607 0.726884,-0.674607 0.08344,0 0.400228,0.249738 0.703983,0.554974 0.303752,0.305236 0.59132,0.53103 0.639035,0.501764 0.04771,-0.02926 0.0558,-0.102913 0.01798,-0.163661 -0.03837,-0.06163 -0.02159,-0.08151 0.03798,-0.04497 0.135812,0.0833 0.374414,-0.193823 0.287309,-0.33369 -0.04044,-0.06494 0.0023,-0.07932 0.111512,-0.03767 0.139548,0.05314 0.161844,0.02835 0.105518,-0.117317 -0.06041,-0.156223 -0.04734,-0.164871 0.08474,-0.05609 0.309464,0.254878 0.148016,-0.06773 -0.20273,-0.405103 -0.197385,-0.18986 -0.358884,-0.384736 -0.358884,-0.433057 0,-0.177932 0.766805,-0.991574 0.934493,-0.991574 0.280332,0 2.2442,1.913225 2.2442,2.18633 0,0.252984 -0.716575,0.968202 -0.970038,0.968202 -0.08203,0 -0.277999,-0.160271 -0.435495,-0.356154 -0.292113,-0.363318 -0.507846,-0.474468 -0.405083,-0.208704 0.04014,0.103802 0.0078,0.128698 -0.10937,0.08409 -0.123046,-0.04686 -0.149756,-0.02035 -0.102537,0.101758 0.04771,0.123392 0.0198,0.149477 -0.110374,0.103213 -0.09582,-0.03405 -0.142385,-0.02684 -0.103479,0.01603 0.08526,0.09392 -0.140881,0.359629 -0.250181,0.29396 -0.0423,-0.02541 -0.0769,-0.0013 -0.0769,0.05366 0,0.103716 4.852777,4.824115 5.014845,4.878048 0.05054,0.01682 0.33869,-0.125635 0.640318,-0.316568 0.859037,-0.543771 0.843876,-0.544576 2.197617,0.116577 0.672034,0.328215 1.6569,0.76947 2.188591,0.980566 0.84438,0.335241 1.038794,0.376429 1.536288,0.325473 1.438486,-0.147337 3.449984,-1.636865 4.115011,-3.047196 0.276635,-0.586666 0.533137,-1.803639 0.380153,-1.803639 -0.02992,0 -0.255561,0.09058 -0.501405,0.201283 -0.458988,0.206688 -1.502001,0.264401 -2.036332,0.112676 -0.188104,-0.05341 -0.06049,-0.0896 0.479365,-0.135935 1.009297,-0.08662 1.490045,-0.365477 2.19139,-1.271093 l 0.255471,-0.329876 0.537489,0.202677 c 0.754787,0.284617 1.574127,0.265531 2.262989,-0.05272 0.642716,-0.296925 0.630686,-0.294827 0.630686,-0.109977 0,0.304383 1.048191,2.201878 1.461875,2.646369 0.239299,0.257117 0.688869,0.606143 0.99905,0.775611 l 0.563959,0.308124 -0.410153,-0.06762 c -0.51028,-0.08412 -0.708692,-0.181753 -1.247716,-0.613952 -0.235075,-0.188486 -0.488856,-0.319091 -0.563963,-0.290232 -0.256412,0.09853 -0.639906,0.783501 -0.817325,1.459859 -0.09746,0.371517 -0.279898,0.911669 -0.405433,1.200338 -0.202981,0.466767 -0.213275,0.560701 -0.09304,0.848778 0.07436,0.17816 0.312437,0.440321 0.529052,0.58258 0.216616,0.14226 0.393845,0.283961 0.393845,0.314893 0,0.03093 -0.09564,0.157261 -0.212519,0.280735 -0.191937,0.202752 -0.200548,0.264152 -0.08893,0.633874 0.111335,0.368764 0.169386,0.420818 0.585189,0.524723 0.629555,0.157319 1.145613,0.433898 1.499567,0.803687 0.279875,0.292399 0.312228,0.301687 0.57717,0.165722 0.308097,-0.158112 0.408064,-0.338005 0.408064,-0.734322 v -0.260834 l -0.743261,0.06184 c -0.800025,0.06656 -0.797401,0.04483 0.04734,-0.392374 0.763666,-0.395241 1.224843,-0.843911 1.188313,-1.156082 -0.02039,-0.174307 -0.08347,-0.252552 -0.184775,-0.229213 -0.08459,0.01949 -0.522948,0.05532 -0.974115,0.07963 l -0.82031,0.04419 0.643259,-0.245757 c 1.105226,-0.422249 1.80247,-0.969202 2.187095,-1.715669 0.183527,-0.356185 0.26492,-0.894445 0.135254,-0.894445 -0.03259,0 -0.390209,0.156741 -0.794677,0.348314 -0.723907,0.342875 -1.961039,0.657095 -2.088616,0.530489 -0.03589,-0.0356 0.01267,-0.06473 0.107924,-0.06473 0.348018,0 1.495801,-0.601017 1.961722,-1.027221 0.529261,-0.484148 0.770389,-0.872588 0.770389,-1.241052 0,-0.272739 -0.58484,-1.496812 -0.715152,-1.496812 -0.138262,0 -0.720389,0.707212 -0.720389,0.875183 0,0.08568 0.05333,0.254683 0.118516,0.375556 0.11554,0.21424 0.112315,0.215605 -0.128169,0.05423 -0.338279,-0.226996 -0.301059,-0.676471 0.110404,-1.333344 0.374468,-0.597811 0.364756,-0.645613 -0.30069,-1.480074 -0.516368,-0.647518 -1.128158,-1.052053 -2.044777,-1.352065 -0.372696,-0.121986 -1.245925,-0.470405 -1.940507,-0.774267 -1.276627,-0.558492 -2.913707,-1.038832 -3.595217,-1.054883 l -0.371375,-0.0087 0.307616,-0.09835 c 0.401941,-0.128511 1.52975,-0.03133 2.505434,0.215892 0.642903,0.162901 2.907833,0.898125 3.631608,1.178867 0.178764,0.06934 0.180756,0.05626 0.0343,-0.224821 -0.08553,-0.164145 -0.47087,-0.639428 -0.856305,-1.056185 -0.640096,-0.692112 -0.660826,-0.727537 -0.239368,-0.409002 1.791945,1.35433 3.263585,3.036484 4.254474,4.863055 0.453616,0.836185 0.592567,0.672874 0.313335,-0.368271 -0.364178,-1.357868 -1.088372,-2.360392 -3.0907,-4.278555 -1.708576,-1.636759 -1.979707,-1.785278 -3.105098,-1.700867 -0.429914,0.03225 -1.889083,0.102674 -3.242592,0.156507 -2.06241,0.08203 -2.643576,0.140784 -3.58885,0.362841 -2.178499,0.51176 -3.065607,0.582512 -3.896461,0.310765 l -0.410153,-0.134148 0.6665,-0.01287 c 0.785674,-0.01517 2.146965,-0.298614 3.43504,-0.715228 1.518925,-0.491281 2.090588,-0.536522 7.075158,-0.559932 1.029973,-0.0048 1.1769,0.01893 1.691884,0.273718 0.668949,0.330955 2.140799,1.592025 2.940464,2.51936 0.752268,0.872373 1.801943,2.466849 2.043195,3.103653 0.25963,0.685319 0.254456,1.632956 -0.01108,2.027469 -0.176792,0.262673 -0.197963,0.458009 -0.180539,1.665789 0.02232,1.546425 -0.0429,1.794701 -0.645038,2.45613 -0.353648,0.388473 -0.385404,0.473336 -0.39448,1.054269 -0.0075,0.478105 -0.06504,0.708529 -0.236636,0.947265 -0.171606,0.238747 -0.21252,0.402541 -0.168219,0.673462 0.07895,0.482808 -0.194828,1.030005 -0.690249,1.379593 -0.364294,0.257063 -0.388481,0.304932 -0.332837,0.658802 l 0.06,0.381596 -5.985973,1.02e-4 c -3.292287,6e-5 -13.785852,0.0305 -23.31904,0.06764 l -17.333064,0.06752 -0.282708,-0.625167 z m 3.366967,-1.442128 c 0.338376,-0.05435 1.538074,-0.169455 2.665999,-0.255801 4.113624,-0.314909 7.246521,-1.035613 10.664009,-2.453192 1.601915,-0.664477 5.164004,-2.530135 5.048887,-2.644376 -0.02318,-0.02299 -0.3107,0.0499 -0.63896,0.161979 -0.328261,0.11208 -0.658827,0.203782 -0.734592,0.203782 -0.108982,0 -0.137758,-0.308202 -0.137758,-1.475507 0,-0.811528 0.01744,-1.475506 0.03876,-1.475506 0.02131,0 0.205881,0.0693 0.410157,0.154004 0.204272,0.0847 0.371406,0.136358 0.371406,0.11479 0,-0.07634 -7.489629,-7.290093 -7.563794,-7.285187 -0.04143,0.0027 -0.459743,0.363501 -0.92959,0.801693 l -0.854263,0.796712 0.495379,0.167052 c 1.374564,0.463532 2.137171,1.47994 1.85942,2.478238 -0.100921,0.362724 -0.607527,0.963955 -0.889944,1.056166 -0.112749,0.03681 -0.09728,0.131377 0.0769,0.470217 0.128929,0.2508 0.218034,0.615666 0.218034,0.892794 0,0.803002 -0.346715,1.246644 -1.230679,1.57471 l -0.596552,0.221399 0.247116,0.361376 c 0.304438,0.445202 0.305627,0.521006 0.01496,0.953922 -0.163816,0.244 -0.506404,0.482751 -1.163998,0.811198 l -0.931861,0.465434 0.189883,0.232714 c 0.104436,0.127992 0.189882,0.290153 0.189882,0.360356 0,0.23885 -0.428487,0.669231 -0.906132,0.910131 l -0.476334,0.240239 0.691233,0.338273 c 0.38018,0.186049 0.691233,0.364243 0.691233,0.395985 0,0.03175 -1.473745,0.297672 -3.274994,0.59095 -1.801246,0.293279 -3.54312,0.61924 -3.87083,0.724356 -0.677796,0.217412 -0.567749,0.254801 0.327013,0.111099 z m 38.01616,-1.445434 -1.563714,-0.506812 -7.75e-4,-0.830808 c -3.88e-4,-0.742516 -0.138843,-1.593999 -0.259002,-1.593999 -0.02469,0 -0.371228,0.250217 -0.770076,0.556038 -0.398844,0.305822 -1.068603,0.749953 -1.488355,0.986957 -0.419753,0.237005 -0.763185,0.458259 -0.763185,0.491674 0,0.08086 3.839879,1.110104 4.760889,1.276108 0.398709,0.07186 0.932563,0.129986 1.186348,0.129159 0.401274,-0.0013 0.257583,-0.06757 -1.102289,-0.508317 z m -13.992872,-2.082154 c 0.298086,-0.03553 0.528796,-0.09752 0.512694,-0.137757 -0.05938,-0.148395 -4.621694,-4.476794 -4.718728,-4.476794 -0.05529,0 -0.07487,0.06636 -0.04351,0.147456 0.04013,0.103802 0.0078,0.128698 -0.10937,0.08409 -0.123046,-0.04686 -0.149756,-0.02035 -0.102541,0.101759 0.04231,0.109413 0.01926,0.148143 -0.0683,0.114794 -0.07269,-0.02768 -0.195689,0.02563 -0.27333,0.118478 -0.125813,0.150442 0.07806,0.383422 1.874008,2.141571 1.133816,1.109954 2.096514,1.972379 2.201148,1.971882 0.102281,-5e-4 0.429856,-0.02995 0.727934,-0.06548 z m 17.989487,2.534023 c 0.291982,-0.329984 0.313305,-0.604338 0.06062,-0.779982 -0.25739,-0.178913 -0.08144,-0.221622 0.230489,-0.05595 0.258723,0.13741 0.255286,0.550458 -0.0067,0.810493 -0.25694,0.254985 -0.507299,0.277383 -0.284367,0.02544 z m -0.377234,-1.688974 c 0.461305,-0.457798 0.460138,-0.688598 -0.0049,-0.971881 -0.183101,-0.111539 -0.172176,-0.117908 0.101967,-0.05944 0.440692,0.09399 0.579267,0.244261 0.544136,0.590069 -0.03166,0.311756 -0.342549,0.605902 -0.769378,0.72797 -0.187929,0.05375 -0.166428,0.0056 0.128174,-0.286715 z m -0.169331,-1.748936 c 0.374479,-0.423264 0.384481,-0.490396 0.113164,-0.759651 -0.247407,-0.245522 -0.04878,-0.276982 0.284796,-0.04511 0.380502,0.264488 0.256855,0.776898 -0.252421,1.046079 -0.410242,0.216834 -0.46725,0.122308 -0.145539,-0.241318 z m -10.943705,-0.347566 c -1.268318,-0.727191 -2.050613,-1.292105 -3.144717,-2.270877 -2.930093,-2.621219 -5.01874,-5.800818 -5.862919,-8.925256 -0.338053,-1.251197 -0.381606,-2.988271 -0.09815,-3.914817 0.74547,-2.436767 2.637681,-3.92606 4.982861,-3.921836 1.821948,0.0033 3.551273,1.047549 4.328422,2.613756 0.301097,0.606811 0.341173,0.784006 0.341173,1.508593 0,0.741689 -0.03658,0.89432 -0.378653,1.579583 -0.428972,0.859374 -1.106401,1.574911 -1.866834,1.971853 -1.648587,0.860555 -4.066483,-0.533166 -4.058383,-2.33933 0.0023,-0.550593 0.261889,-1.212928 0.587607,-1.50025 0.192053,-0.169411 0.189123,-0.145756 -0.03678,0.297084 -0.677972,1.328985 0.147066,2.712197 1.842655,3.089299 1.080477,0.240299 2.232717,-0.410476 2.736827,-1.545734 0.339724,-0.765054 0.34594,-1.973528 0.0136,-2.64312 -0.509911,-1.027354 -1.657733,-1.810488 -2.968433,-2.025299 -2.074568,-0.340004 -3.714198,0.923682 -4.337735,3.343152 -0.600434,2.329835 0.173877,5.173635 2.23719,8.21645 1.800436,2.655144 3.621935,4.652918 5.520668,6.05492 0.568284,0.419615 1.121628,0.817484 1.229649,0.884151 0.108021,0.06667 0.149519,0.123908 0.09222,0.127199 -0.0573,0.0033 -0.579414,-0.266493 -1.160258,-0.599521 z m -30.226205,0.37746 c 0.0305,-0.09744 0.01035,-0.803228 -0.04475,-1.568415 -0.187123,-2.598504 -0.157197,-3.452349 0.149245,-4.258204 0.246449,-0.648087 1.161238,-2.147084 1.254071,-2.054955 0.02128,0.02112 -0.117973,0.377642 -0.309448,0.792278 -0.546004,1.182352 -0.678921,1.962751 -0.678921,3.986131 0,1.705527 -0.114625,2.808653 -0.324993,3.127693 -0.08324,0.126236 -0.09106,0.121994 -0.04521,-0.02453 z m 64.468876,-7.022288 c -0.047,-0.125927 -0.18424,-0.493977 -0.30509,-0.817889 -0.25373,-0.680159 -0.26835,-0.796747 -0.0915,-0.730164 0.0705,0.02654 0.53463,-0.329776 1.03142,-0.791826 l 0.90328,-0.840091 -0.40279,-1.017591 -0.40278,-1.017591 -1.10089,-0.02899 c -1.19126,-0.03137 -1.44063,0.04852 -1.32641,0.424954 0.0409,0.134916 0.0297,0.176809 -0.0304,0.112833 -0.0798,-0.085 -0.35011,-0.741548 -0.71222,-1.729905 -0.0492,-0.134256 0.0455,-0.07897 0.27815,0.162464 l 0.35275,0.365981 2.40965,0.06626 c 1.32531,0.03644 2.95183,0.06637 3.61448,0.06649 0.66266,1.02e-4 1.20482,0.03852 1.20482,0.08531 0,0.0468 -1.12392,1.120183 -2.49761,2.385307 -2.53841,2.337778 -2.90313,2.768235 -2.77494,3.275091 0.0808,0.319604 -0.0333,0.341954 -0.14989,0.02935 z m 3.66847,-5.032837 0.36971,-0.326482 -1.39282,-0.0042 c -0.76605,-0.0023 -1.42118,0.02392 -1.45585,0.05833 -0.055,0.05453 0.073,0.439473 0.53192,1.600526 l 0.11438,0.289346 0.73148,-0.645502 c 0.40232,-0.355026 0.89784,-0.792419 1.10118,-0.971982 z m -94.646342,3.431409 c -0.03068,-0.292884 -0.108819,-0.393607 -0.447323,-0.576569 -0.6957,-0.376029 -6.324969,-2.29133 -6.561386,-2.232444 -0.119514,0.02977 -0.292591,0.204323 -0.384612,0.387899 -0.247108,0.492961 -0.22053,0.08484 0.036,-0.552849 0.380329,-0.945417 1.11657,-3.112703 1.11657,-3.286865 0,-0.09253 0.03461,-0.150436 0.0769,-0.128688 0.0423,0.02175 0.319151,0.146148 0.615231,0.276445 0.513677,0.226054 0.763746,0.498002 0.333251,0.362407 -0.492696,-0.155187 -0.812468,0.218941 -1.239207,1.44985 -0.140638,0.405663 -0.156962,0.554833 -0.06426,0.587202 0.06835,0.02387 0.718119,0.250719 1.443932,0.504117 0.725813,0.253398 1.354443,0.460723 1.396955,0.460723 0.137916,0 0.731529,-1.935666 0.661124,-2.155805 -0.03672,-0.114803 -0.02599,-0.191867 0.02383,-0.171253 1.350443,0.558697 1.548185,0.690979 0.92498,0.618777 -0.20183,-0.02338 -0.384872,0.01576 -0.452465,0.09675 -0.221345,0.265234 -0.758627,1.744844 -0.655706,1.805733 0.05596,0.03311 0.773663,0.288875 1.594893,0.568373 1.151796,0.392004 1.534136,0.483744 1.672439,0.401289 0.258984,-0.154403 0.721397,-1.102391 0.803833,-1.647928 0.06728,-0.445258 0.05272,-0.484251 -0.301049,-0.805988 -0.204463,-0.185952 -0.324753,-0.338095 -0.267309,-0.338095 0.152983,0 1.097948,0.48799 1.170471,0.604443 0.03409,0.05474 -0.240881,0.914198 -0.611042,1.909918 -0.894329,2.405718 -0.840929,2.293465 -0.88606,1.862556 z m 87.614062,-6.463465 c -0.29253,-0.58739 -0.49358,-1.067983 -0.44676,-1.067983 0.0468,0 0.11169,0.06869 0.14417,0.152639 0.0336,0.08687 0.18649,0.152638 0.35487,0.152638 0.29545,0 5.13181,-2.310416 5.47352,-2.614793 0.12074,-0.107558 0.15887,-0.253974 0.12369,-0.474824 -0.0339,-0.21255 0.11851,0.0039 0.45579,0.6474 0.27867,0.531691 0.48454,0.989534 0.45751,1.01743 -0.027,0.0279 -0.10813,-0.02934 -0.18024,-0.127198 -0.0721,-0.09786 -0.23019,-0.177919 -0.35128,-0.177919 -0.26892,0 -5.24965,2.459329 -5.4388,2.68551 -0.0887,0.106033 -0.11187,0.284236 -0.0675,0.518785 0.0371,0.1965 0.0539,0.357054 0.0372,0.356785 -0.0167,-3.05e-4 -0.26965,-0.481079 -0.56219,-1.06847 z m -86.087101,0.684443 c -0.506119,-0.288003 -0.657431,-0.502137 -0.256764,-0.363366 0.680175,0.235578 1.212695,-0.05066 1.647308,-0.885461 0.428585,-0.823219 0.277559,-1.40607 -0.462781,-1.786005 -0.450518,-0.231202 -0.769321,-0.170579 -2.021484,0.384397 -1.378498,0.610971 -2.100938,0.72775 -2.714537,0.438792 -0.600133,-0.282617 -0.832452,-0.69543 -0.829638,-1.474205 0.0025,-0.693044 0.244375,-1.277059 0.821398,-1.983328 l 0.248617,-0.304304 0.471925,0.253425 c 0.614171,0.32981 0.663581,0.425268 0.18044,0.348598 -0.310453,-0.04927 -0.451762,-0.0159 -0.676907,0.159857 -0.569542,0.444597 -0.860436,1.424712 -0.578186,1.948093 0.06094,0.112993 0.270264,0.271567 0.465174,0.352387 0.45891,0.190288 0.864569,0.0848 2.117149,-0.550559 0.879386,-0.446057 0.99638,-0.478567 1.722261,-0.478567 0.695084,0 0.819264,0.03064 1.155428,0.285097 0.782533,0.592329 0.945694,1.506419 0.454713,2.547457 -0.347432,0.736669 -0.860185,1.391398 -1.086649,1.38753 -0.09395,-0.0016 -0.389815,-0.127532 -0.657467,-0.279838 z m 85.424671,-2.38565 c -0.81071,-1.086549 -0.82984,-1.392656 -0.20969,-3.35422 l 0.44029,-1.392587 -0.33844,-0.513567 c -0.18614,-0.282462 -0.38458,-0.513895 -0.44098,-0.514297 -0.13819,-10e-4 -1.35414,0.844337 -1.76728,1.228609 -0.32786,0.304962 -0.32995,0.312815 -0.1781,0.673486 0.0845,0.20071 0.13711,0.38134 0.1169,0.401401 -0.0324,0.03217 -0.67028,-0.863485 -1.24234,-1.744442 l -0.19973,-0.307582 0.20781,0.178078 c 0.28926,0.247882 0.42998,0.226697 1.0819,-0.162883 0.9118,-0.544877 4.11484,-2.770152 4.33413,-3.011091 0.16946,-0.186183 0.18256,-0.265518 0.0858,-0.51989 -0.0628,-0.165098 -0.0836,-0.298645 -0.0462,-0.296769 0.10904,0.0055 1.73965,2.452308 1.9113,2.868015 0.0859,0.208081 0.15518,0.505726 0.15394,0.661434 -0.004,0.487101 -0.35432,1.098502 -0.7803,1.36129 -0.3444,0.212462 -0.5217,0.244684 -1.34635,0.244684 -0.7548,0 -0.95941,0.03132 -0.997,0.152638 -0.37072,1.196369 -0.77041,2.882609 -0.76991,3.248196 0,0.256306 0.0704,0.59875 0.15562,0.760987 0.21763,0.414135 0.12447,0.435065 -0.1714,0.03851 z m 1.90407,-4.699239 c 0.93217,-0.38652 1.53651,-1.335135 1.29288,-2.029392 -0.19686,-0.560988 -0.61684,-1.108274 -0.81168,-1.057709 -0.35758,0.0928 -2.47267,1.632454 -2.47267,1.79995 0,0.236322 0.54543,1.064562 0.83242,1.264057 0.29289,0.203582 0.70403,0.211774 1.15905,0.02309 z m 6.7215,3.901736 c -0.0734,-0.136564 -0.40999,-0.534495 -0.74806,-0.884292 -0.33805,-0.349796 -0.57079,-0.635994 -0.5172,-0.635994 0.20009,0 1.78075,1.033375 1.78075,1.164183 0,0.07488 -0.0859,0.241498 -0.19103,0.370269 l -0.19104,0.234131 z m -92.333138,-2.700826 c -0.724627,-0.22826 -1.567951,-0.830009 -1.965457,-1.402441 -1.134903,-1.634337 -0.749531,-3.437977 1.156522,-5.412835 0.401029,-0.415505 0.761745,-0.755463 0.80159,-0.755463 0.102363,0 1.230037,0.917563 1.274827,1.037299 0.02036,0.05443 -0.104239,0.02647 -0.276889,-0.06213 -0.914931,-0.469534 -2.072747,0.240428 -2.824356,1.731869 -0.365493,0.725263 -0.417929,1.150408 -0.223672,1.81355 0.208637,0.712229 1.041143,1.582635 1.892567,1.978725 0.765831,0.35627 1.969083,0.376921 2.695075,0.04626 0.958616,-0.436621 2.029567,-1.715265 2.031796,-2.425831 5.04e-4,-0.168731 -0.09406,-0.482735 -0.210208,-0.697787 -0.116144,-0.215051 -0.192337,-0.409693 -0.169318,-0.432537 0.02302,-0.02284 0.260808,0.190766 0.528419,0.47469 0.567293,0.601872 0.566204,0.707894 -0.01708,1.661137 -1.225639,2.003024 -3.061699,2.95962 -4.693813,2.445501 z m 78.128278,-4.085401 c -0.27863,-0.321763 -0.84803,-0.940745 -1.26532,-1.375516 -0.4173,-0.43477 -0.72987,-0.819116 -0.69462,-0.854103 0.0353,-0.03499 0.13475,-0.0054 0.22111,0.0657 0.13006,0.107124 0.22285,0.08545 0.5408,-0.126317 0.4454,-0.296654 3.99353,-3.548971 4.21666,-3.865109 0.13341,-0.189016 0.13065,-0.247103 -0.0244,-0.515201 -0.0961,-0.16619 -0.15827,-0.318524 -0.13812,-0.33852 0.0202,-0.01999 0.56377,0.541319 1.20803,1.247364 0.64427,0.706044 1.28676,1.375902 1.42775,1.488571 0.17339,0.138562 0.21364,0.220001 0.12438,0.25166 -0.0726,0.02574 -0.26381,0.156904 -0.42495,0.291469 -0.36138,0.301763 -0.63302,0.334025 -0.36831,0.04374 0.24152,-0.264835 0.11182,-0.574994 -0.5515,-1.318956 l -0.4932,-0.553165 -0.29677,0.231049 c -0.16322,0.127078 -0.6101,0.530913 -0.99306,0.897412 l -0.69628,0.666363 0.49746,0.571586 c 0.2736,0.314371 0.64361,0.640272 0.82223,0.724223 0.17863,0.08395 0.32579,0.178167 0.32701,0.20937 0.002,0.05966 -0.89104,0.706462 -0.97577,0.706462 -0.027,0 0.004,-0.08467 0.0693,-0.18816 0.17778,-0.282487 0.0365,-0.617042 -0.51927,-1.229456 l -0.50151,-0.552666 -0.97939,0.892183 c -0.53866,0.490701 -1.00668,0.977516 -1.04004,1.081814 -0.0867,0.271012 0.16975,0.704127 0.7088,1.197232 0.47977,0.438879 0.80898,0.527464 1.1961,0.321859 0.10908,-0.05794 0.19833,-0.06402 0.19833,-0.01352 0,0.118155 -0.77308,0.627658 -0.95236,0.627658 -0.0751,0 -0.36442,-0.263261 -0.64306,-0.585025 z m -72.155617,-2.002378 c -0.552415,-0.195639 -0.977264,-0.538496 -2.55567,-2.062445 -0.771277,-0.744665 -1.46468,-1.353938 -1.540898,-1.353938 -0.07622,0 -0.241128,0.07128 -0.366467,0.158409 -0.447617,0.311138 -0.215818,-0.02277 0.517923,-0.74607 0.76574,-0.754849 1.025813,-0.926478 0.733868,-0.4843 -0.155307,0.235225 -0.152266,0.269572 0.04865,0.549591 0.42039,0.585895 3.000535,2.954685 3.457365,3.174151 0.637992,0.306499 1.510928,0.247319 2.018442,-0.136839 0.480174,-0.363462 0.804771,-0.907514 0.866685,-1.452637 0.0889,-0.782715 -0.274884,-1.325351 -2.062179,-3.07605 -0.869095,-0.851302 -1.649227,-1.547822 -1.733624,-1.547822 -0.0844,0 -0.210894,0.06869 -0.281101,0.152639 -0.07021,0.08395 -0.171208,0.152638 -0.224447,0.152638 -0.05324,0 0.194658,-0.320097 0.550883,-0.711326 0.638855,-0.701634 0.909844,-0.900845 0.702557,-0.516472 -0.05838,0.108256 -0.106146,0.252561 -0.106146,0.320678 0,0.06812 0.71431,0.841754 1.587356,1.719191 1.14177,1.147514 1.650903,1.73591 1.813734,2.0961 0.438428,0.969821 0.21142,2.022551 -0.631929,2.930522 -0.802164,0.86363 -1.838306,1.172796 -2.795004,0.83398 z m 67.324837,-3.098244 c -0.65101,-0.240104 -1.34169,-0.700961 -2.08449,-1.390893 -0.31018,-0.2881 -0.83495,-0.740115 -1.16615,-1.004477 -0.586711,-0.468296 -0.593303,-0.479015 -0.25635,-0.416823 0.42969,0.07931 0.51991,-0.0099 2.57213,-2.543019 1.82121,-2.247982 1.81175,-2.231953 1.50766,-2.553176 -0.51847,-0.547695 -0.0684,-0.277984 1.13915,0.682683 1.68362,1.33938 2.1731,1.82745 2.58095,2.573471 0.30319,0.554605 0.33888,0.705625 0.33888,1.433963 0,0.685643 -0.0453,0.90562 -0.28714,1.394364 -0.32982,0.666529 -1.06477,1.37109 -1.78618,1.712318 -0.68808,0.325463 -1.84209,0.375796 -2.55846,0.111589 z m 1.97929,-0.619557 c 1.07278,-0.610613 1.78092,-1.781977 1.78092,-2.945896 0,-0.703503 -0.18366,-1.269015 -0.61347,-1.888976 -0.3885,-0.560372 -1.40566,-1.397046 -1.64838,-1.355892 -0.15782,0.02676 -3.02113,3.439443 -3.51137,4.185096 -0.22235,0.338183 -0.16575,0.565308 0.26109,1.047756 0.70946,0.801891 1.61917,1.2414 2.58978,1.251205 0.50051,0.0051 0.71335,-0.04964 1.14143,-0.293293 z m -63.023434,-0.46679 c 0,-0.0444 0.07438,-0.162286 0.165296,-0.261979 0.152852,-0.167616 0.146729,-0.214177 -0.08134,-0.618567 -0.278931,-0.494563 -3.126923,-4.20486 -3.4462,-4.489627 -0.193808,-0.17286 -0.229512,-0.174413 -0.524892,-0.02283 -0.60479,0.310372 -0.304245,8.07e-4 0.73628,-0.758408 0.575297,-0.419756 1.292823,-0.961524 1.594503,-1.203928 0.30168,-0.242404 0.559297,-0.42557 0.572484,-0.407036 0.157286,0.221068 0.471181,0.83412 0.471181,0.920238 0,0.06144 -0.08438,0.03593 -0.187517,-0.0567 -0.27549,-0.24742 -0.440784,-0.212214 -1.121431,0.238849 -0.969276,0.642338 -0.966012,0.559408 -0.06768,1.720029 0.455632,0.588668 0.838677,0.993848 0.904149,0.956398 0.394711,-0.225771 1.426569,-1.114582 1.489281,-1.282819 0.06509,-0.174626 0.120366,-0.129447 0.406766,0.332473 0.318158,0.513143 0.387071,0.787431 0.116571,0.463976 -0.07134,-0.0853 -0.209396,-0.155098 -0.306795,-0.155098 -0.16717,0 -1.534911,0.906273 -1.53903,1.019771 -0.0038,0.104119 1.590783,2.069635 1.765331,2.176012 0.218271,0.133024 0.649816,-0.07734 1.301748,-0.634554 0.458794,-0.392139 0.565734,-0.735452 0.367163,-1.178735 -0.06271,-0.139991 -0.05309,-0.173825 0.03418,-0.120295 0.135153,0.08289 0.528653,0.80692 0.528653,0.972704 0,0.08581 -0.99426,0.861211 -2.989226,2.331226 -0.104207,0.07679 -0.189468,0.103288 -0.189468,0.05889 z m 5.015498,-3.64892 0.231935,-0.245006 -0.203458,-0.456459 c -0.291982,-0.655054 -2.357531,-4.332312 -2.6599,-4.735362 -0.251359,-0.335063 -0.311309,-0.347616 -0.794727,-0.166409 -0.470182,0.176241 0.127817,-0.240981 1.025384,-0.715414 0.739258,-0.390752 0.876949,-0.437948 0.692136,-0.237239 -0.126891,0.137805 -0.230711,0.311548 -0.230711,0.386099 0,0.140775 1.93016,3.621029 2.527711,4.557694 0.292311,0.458195 0.386388,0.534235 0.660989,0.534235 0.398348,0 1.4704,-0.556575 1.748946,-0.907994 0.149345,-0.188421 0.192588,-0.355212 0.153717,-0.59292 -0.08288,-0.506852 0.100789,-0.392987 0.29314,0.181731 0.125143,0.373903 0.141428,0.548467 0.06023,0.645561 -0.06121,0.07319 -0.630717,0.400642 -1.26557,0.72766 -0.634853,0.327018 -1.40806,0.746167 -1.718237,0.931442 -0.667663,0.398805 -0.840667,0.429447 -0.521584,0.09238 z m 48.698712,-0.195889 c -1.382462,-0.512939 -2.239868,-1.506168 -2.239868,-2.594686 0,-0.541614 0.303085,-1.239579 1.178446,-2.713805 1.313622,-2.212321 1.376509,-2.381534 0.966081,-2.599521 -0.117624,-0.06247 -0.189142,-0.138113 -0.158929,-0.168095 0.06895,-0.06843 1.910709,1.0088 1.910798,1.117611 3.8e-5,0.04394 -0.09605,0.02885 -0.213539,-0.03355 -0.171644,-0.09116 -0.254421,-0.07687 -0.421357,0.07274 -0.246247,0.220689 -1.732816,2.671926 -2.149429,3.544237 -0.641127,1.342398 -0.233036,2.45404 1.084155,2.953258 0.924719,0.350467 1.758383,-0.01934 2.515294,-1.115774 0.647111,-0.937383 1.953482,-3.265109 1.953482,-3.480768 0,-0.131128 -0.093,-0.281509 -0.21386,-0.345681 -0.11762,-0.06247 -0.18892,-0.138333 -0.15843,-0.168584 0.0545,-0.05405 1.70529,0.863724 1.70529,0.948051 0,0.02373 -0.10872,0.01607 -0.2416,-0.01703 -0.33628,-0.08376 -0.43811,0.04028 -1.52653,1.859283 -0.971519,1.623629 -1.53716,2.320155 -2.132122,2.625484 -0.452477,0.232205 -1.388314,0.291055 -1.857882,0.116832 z M 51.33127,-59.074788 c 0.109474,-0.08852 0.228959,-0.160945 0.265524,-0.160945 0.23061,0 0.299566,-0.754752 0.366666,-4.013126 0.03983,-1.934375 0.104045,-3.517045 0.142695,-3.517045 0.03864,0 1.115911,1.11674 2.393918,2.481645 2.380505,2.542363 2.781554,2.874517 3.318857,2.748727 0.514814,-0.120524 0.115179,0.119752 -0.668426,0.401884 -0.846565,0.3048 -0.956315,0.322429 -0.887545,0.14257 0.02674,-0.06996 -0.332302,-0.530577 -0.797894,-1.023596 l -0.846527,-0.8964 -1.025384,0.399719 -1.025384,0.399717 -0.02922,1.092528 c -0.03162,1.182204 0.04889,1.429667 0.428209,1.316321 0.135948,-0.04062 0.178163,-0.02941 0.113695,0.0302 -0.09195,0.08502 -1.218402,0.534641 -1.743153,0.695777 -0.202245,0.0621 -0.20233,0.06075 -0.006,-0.09797 z m 2.943727,-4.088079 c 0.04951,-0.03037 -0.337429,-0.539931 -0.85987,-1.132364 l -0.949898,-1.077149 -0.03077,1.109462 c -0.01694,0.610203 -0.0035,1.256491 0.02953,1.436194 l 0.0603,0.326732 0.83034,-0.303829 c 0.456689,-0.167106 0.870853,-0.328677 0.92037,-0.359046 z m 36.966856,3.501895 c -0.533303,-0.206315 -0.768936,-0.34481 -0.701134,-0.412095 0.138075,-0.137027 0.02411,-2.445667 -0.125643,-2.544548 -0.194324,-0.128333 -2.005557,-0.707142 -2.101219,-0.671478 -0.194809,0.07263 -1.344165,1.571065 -1.344285,1.752562 -7e-5,0.105764 0.08062,0.257464 0.179318,0.33711 0.128472,0.103676 0.13575,0.130663 0.02562,0.09501 -1.184751,-0.383604 -1.845694,-0.627886 -1.845694,-0.682163 0,-0.03667 0.114505,-0.04495 0.254452,-0.0184 0.563296,0.106861 0.744711,-0.05349 2.937507,-2.596486 2.654594,-3.078544 2.426495,-2.834459 2.538353,-2.716239 0.05069,0.05357 0.164475,1.585624 0.252863,3.404568 0.08839,1.818943 0.213751,3.457383 0.27858,3.640978 0.06795,0.192449 0.24343,0.398245 0.41437,0.485969 0.163072,0.08369 0.296497,0.173879 0.296497,0.200426 0,0.09926 -0.278864,0.02683 -1.059597,-0.275212 z m -0.807237,-5.499838 -0.03011,-0.735363 -0.904969,1.100784 c -0.497731,0.605432 -0.88994,1.112775 -0.871574,1.127429 0.01837,0.01465 0.425597,0.165754 0.904965,0.33578 l 0.871578,0.309136 0.03011,-0.701202 c 0.01659,-0.385659 0.01659,-1.032113 0,-1.436564 z m -7.054018,3.01587 c -0.704952,-0.1929 -1.627799,-0.426295 -2.050772,-0.518661 -0.823073,-0.179737 -1.143202,-0.337217 -0.685501,-0.337217 0.201555,0 0.33188,-0.08733 0.472315,-0.316507 0.20187,-0.329425 1.658063,-6.051531 1.684757,-6.620266 0.01236,-0.263282 -0.05056,-0.36919 -0.333174,-0.560751 -0.191627,-0.129891 -0.311127,-0.236166 -0.265555,-0.236166 0.228137,0 2.370975,0.556384 2.459661,0.638646 0.0643,0.05964 -0.01217,0.0722 -0.205078,0.03369 -0.600284,-0.119855 -0.633384,-0.04477 -1.439397,3.265141 -0.812047,3.334683 -0.850891,3.585932 -0.59056,3.819739 0.447694,0.402076 1.958361,0.713903 2.37823,0.490906 0.124666,-0.06621 0.316308,-0.266285 0.425872,-0.444607 0.157673,-0.256626 0.198815,-0.281792 0.197339,-0.120705 -0.0023,0.259471 -0.37913,1.089247 -0.540885,1.191289 -0.154794,0.09765 -0.01213,0.124582 -1.507252,-0.284531 z m -21.225476,-0.426087 c 0,-0.05543 0.09228,-0.124727 0.205079,-0.154 0.1734,-0.045 0.205074,-0.1388 0.205074,-0.607304 0,-0.682583 -0.753291,-5.256104 -0.915154,-5.556247 -0.07947,-0.147361 -0.215751,-0.217785 -0.421454,-0.217785 -0.755914,0 -0.158514,-0.179793 1.485035,-0.446931 2.927485,-0.475827 4.054298,-0.305917 5.022197,0.757288 0.629752,0.691763 0.821278,1.222233 0.824824,2.2845 0.0027,0.807621 -0.03201,0.986697 -0.293691,1.515599 -0.739262,1.494157 -1.599558,1.900517 -4.850416,2.291094 -0.518698,0.06232 -1.014727,0.140591 -1.102289,0.173936 -0.08756,0.03334 -0.159205,0.01528 -0.159205,-0.04015 z m 3.912413,-0.961342 c 1.202245,-0.54844 1.640856,-1.215046 1.640856,-2.493776 0,-1.036243 -0.280185,-1.792948 -0.897141,-2.422922 -0.602613,-0.615332 -1.230036,-0.883797 -2.198598,-0.940748 -0.771978,-0.04539 -1.891126,0.114879 -1.997751,0.286096 -0.03108,0.04989 0.152154,1.313331 0.407172,2.807646 0.335232,1.964371 0.513698,2.772198 0.644297,2.916446 0.159674,0.176357 0.277693,0.193579 1.016893,0.148381 0.586142,-0.03584 1.000163,-0.1259 1.384272,-0.301123 z m 4.903007,-0.09052 c 0.139397,-0.05521 0.288653,-0.155336 0.331679,-0.222508 0.04303,-0.06717 0.07825,-1.404294 0.07829,-2.971384 6.2e-5,-3.126955 -0.0305,-3.312177 -0.563649,-3.416854 -0.167664,-0.03292 0.617999,-0.08033 1.745924,-0.105359 1.127925,-0.02503 2.053574,-0.04412 2.056999,-0.04243 0.06056,0.02991 -0.104637,1.071546 -0.169931,1.071546 -0.05096,0 -0.09264,-0.08598 -0.09264,-0.191058 0,-0.34071 -0.289045,-0.457695 -1.242651,-0.502941 l -0.916789,-0.0435 0.02872,1.3609 0.02868,1.3609 0.974116,-0.03571 c 0.535764,-0.01964 1.03291,-0.08341 1.104769,-0.1417 0.07186,-0.05829 0.143357,-0.08801 0.158886,-0.06605 0.07069,0.09998 -0.06253,1.21017 -0.145221,1.21017 -0.05118,0 -0.09305,-0.08997 -0.09305,-0.199938 0,-0.31063 -0.34329,-0.42174 -1.203218,-0.389434 l -0.790519,0.0297 0.03252,1.322205 c 0.01787,0.727212 0.07588,1.402638 0.128898,1.500947 0.08094,0.150076 0.24381,0.178741 1.015634,0.178741 0.78252,0 0.949738,-0.03027 1.124313,-0.203519 0.112796,-0.111935 0.205078,-0.269502 0.205078,-0.35015 0,-0.08065 0.05237,-0.178752 0.116373,-0.218008 0.08427,-0.05169 0.09614,0.06252 0.04302,0.41404 -0.124271,0.822416 0.04087,0.765384 -2.195498,0.758223 -1.432971,-0.0046 -1.94103,-0.03541 -1.760712,-0.106828 z"
       style="fill:#ffffff;fill-opacity:1;stroke-width:0.999998" />
  </g>
</svg>
